<svg width="114" height="61" viewBox="0 0 114 61" fill="none" xmlns="http://www.w3.org/2000/svg">
<path d="M21.3974 18.2119L9.26676 6.08123L14.348 1.00003L28.4044 1.00003L33.5068 6.10253M21.3974 18.2119L33.5068 6.10253M21.3974 18.2119L27.1386 6.10253L23.356 1.00003M33.5068 6.10253L9.26676 6.10253M21.3868 17.9306L15.7791 6.10253L19.5617 1.00003" stroke="url(#paint0_linear_1239_24629)" stroke-width="1.75037" stroke-miterlimit="10"/>
<path d="M40.0256 48.9322C37.9668 52.9217 34.6338 56.1086 30.5561 57.9866C26.4784 59.8646 21.8901 60.3259 17.5202 59.2972C13.1503 58.2685 9.24953 55.8088 6.43784 52.309C3.62616 48.8091 2.06483 44.47 2.00197 39.9811C1.93912 35.4921 3.37834 31.111 6.09094 27.5338C8.80353 23.9566 12.6339 21.3887 16.9733 20.238C21.3126 19.0873 25.9121 19.42 30.0408 21.1831C34.1694 22.9462 37.5904 26.0385 39.7601 29.9688" stroke="#DEA14C" stroke-width="2.33382" stroke-linecap="round" stroke-linejoin="round"/>
<path d="M22.475 47.27C21.855 47.27 21.325 47.16 20.885 46.94C20.445 46.72 20.11 46.41 19.88 46.01C19.65 45.61 19.535 45.145 19.535 44.615C19.535 44.505 19.535 44.39 19.535 44.27C19.545 44.16 19.56 44.04 19.58 43.91C18.81 43.9 18.11 43.755 17.48 43.475C16.85 43.195 16.305 42.815 15.845 42.335C15.395 41.855 15.045 41.3 14.795 40.67C14.555 40.03 14.435 39.35 14.435 38.63C14.435 37.89 14.56 37.2 14.81 36.56C15.07 35.92 15.435 35.36 15.905 34.88C16.385 34.39 16.96 34.01 17.63 33.74C18.3 33.46 19.045 33.32 19.865 33.32C20.685 33.32 21.43 33.45 22.1 33.71C22.77 33.97 23.345 34.34 23.825 34.82C24.305 35.3 24.67 35.855 24.92 36.485C25.18 37.115 25.31 37.8 25.31 38.54V44.315C25.31 44.845 25.205 45.335 24.995 45.785C24.795 46.235 24.485 46.595 24.065 46.865C23.645 47.135 23.115 47.27 22.475 47.27ZM22.34 45.125C22.53 45.125 22.675 45.045 22.775 44.885C22.885 44.735 22.94 44.535 22.94 44.285V41.84C22.73 42.02 22.545 42.205 22.385 42.395C22.235 42.585 22.115 42.785 22.025 42.995C21.935 43.195 21.865 43.405 21.815 43.625C21.775 43.835 21.755 44.055 21.755 44.285C21.755 44.465 21.78 44.615 21.83 44.735C21.88 44.865 21.95 44.96 22.04 45.02C22.14 45.09 22.24 45.125 22.34 45.125ZM19.775 41.78C19.885 41.78 19.985 41.775 20.075 41.765C20.175 41.755 20.275 41.74 20.375 41.72C20.555 41.45 20.765 41.185 21.005 40.925C21.245 40.655 21.515 40.395 21.815 40.145C22.115 39.895 22.445 39.66 22.805 39.44V38.465C22.805 38.035 22.73 37.635 22.58 37.265C22.44 36.895 22.235 36.575 21.965 36.305C21.705 36.035 21.395 35.825 21.035 35.675C20.685 35.525 20.3 35.45 19.88 35.45C19.46 35.45 19.07 35.53 18.71 35.69C18.36 35.84 18.05 36.06 17.78 36.35C17.52 36.64 17.315 36.98 17.165 37.37C17.025 37.75 16.955 38.165 16.955 38.615C16.955 39.065 17.02 39.48 17.15 39.86C17.29 40.24 17.485 40.575 17.735 40.865C17.995 41.145 18.295 41.365 18.635 41.525C18.985 41.685 19.365 41.77 19.775 41.78ZM30.6771 44.18C29.8871 44.18 29.1771 44.005 28.5471 43.655C27.9171 43.305 27.4171 42.825 27.0471 42.215C26.6871 41.605 26.5071 40.92 26.5071 40.16C26.5071 39.39 26.6871 38.705 27.0471 38.105C27.4171 37.495 27.9171 37.015 28.5471 36.665C29.1771 36.305 29.8871 36.125 30.6771 36.125C31.4671 36.125 32.1721 36.305 32.7921 36.665C33.4221 37.015 33.9171 37.495 34.2771 38.105C34.6471 38.705 34.8321 39.39 34.8321 40.16C34.8321 40.92 34.6471 41.605 34.2771 42.215C33.9171 42.825 33.4221 43.305 32.7921 43.655C32.1621 44.005 31.4571 44.18 30.6771 44.18ZM30.6771 42.155C31.0471 42.155 31.3671 42.065 31.6371 41.885C31.9071 41.705 32.1171 41.465 32.2671 41.165C32.4171 40.865 32.4921 40.525 32.4921 40.145C32.4921 39.775 32.4171 39.44 32.2671 39.14C32.1171 38.84 31.9071 38.6 31.6371 38.42C31.3671 38.24 31.0471 38.15 30.6771 38.15C30.3071 38.15 29.9821 38.24 29.7021 38.42C29.4321 38.6 29.2221 38.84 29.0721 39.14C28.9221 39.44 28.8471 39.775 28.8471 40.145C28.8471 40.525 28.9221 40.865 29.0721 41.165C29.2221 41.465 29.4321 41.705 29.7021 41.885C29.9821 42.065 30.3071 42.155 30.6771 42.155ZM36.2128 44V33.05H38.5378V44H36.2128ZM44.0207 44.18C43.3807 44.18 42.8007 44.08 42.2807 43.88C41.7707 43.68 41.3407 43.395 40.9907 43.025C40.6407 42.645 40.3707 42.2 40.1807 41.69C39.9907 41.18 39.8957 40.625 39.8957 40.025C39.8957 39.245 40.0507 38.565 40.3607 37.985C40.6807 37.405 41.1157 36.95 41.6657 36.62C42.2257 36.29 42.8657 36.125 43.5857 36.125C43.8957 36.125 44.1857 36.165 44.4557 36.245C44.7357 36.325 44.9857 36.445 45.2057 36.605C45.4357 36.755 45.6257 36.935 45.7757 37.145H45.8207V33.05H48.1457V40.01C48.1457 40.85 47.9757 41.585 47.6357 42.215C47.2957 42.845 46.8157 43.33 46.1957 43.67C45.5857 44.01 44.8607 44.18 44.0207 44.18ZM44.0207 42.17C44.3807 42.17 44.6907 42.085 44.9507 41.915C45.2207 41.735 45.4257 41.495 45.5657 41.195C45.7057 40.885 45.7757 40.54 45.7757 40.16C45.7757 39.78 45.7057 39.44 45.5657 39.14C45.4257 38.84 45.2207 38.605 44.9507 38.435C44.6907 38.255 44.3807 38.165 44.0207 38.165C43.6707 38.165 43.3607 38.255 43.0907 38.435C42.8207 38.605 42.6157 38.84 42.4757 39.14C42.3357 39.44 42.2657 39.78 42.2657 40.16C42.2657 40.54 42.3357 40.885 42.4757 41.195C42.6157 41.495 42.8207 41.735 43.0907 41.915C43.3607 42.085 43.6707 42.17 44.0207 42.17ZM53.8412 44C52.9712 44 52.2062 43.84 51.5462 43.52C50.8862 43.19 50.3712 42.74 50.0012 42.17C49.6412 41.59 49.4612 40.92 49.4612 40.16C49.4612 39.32 49.6362 38.6 49.9862 38C50.3362 37.4 50.8012 36.94 51.3812 36.62C51.9712 36.29 52.6212 36.125 53.3312 36.125C54.1412 36.125 54.8162 36.295 55.3562 36.635C55.9062 36.975 56.3212 37.44 56.6012 38.03C56.8812 38.61 57.0212 39.275 57.0212 40.025C57.0212 40.155 57.0112 40.31 56.9912 40.49C56.9812 40.66 56.9662 40.795 56.9462 40.895H51.9062C51.9662 41.155 52.0812 41.375 52.2512 41.555C52.4212 41.735 52.6362 41.87 52.8962 41.96C53.1562 42.04 53.4462 42.08 53.7662 42.08H56.1212V44H53.8412ZM51.8462 39.44H54.7712C54.7512 39.28 54.7212 39.125 54.6812 38.975C54.6412 38.825 54.5762 38.695 54.4862 38.585C54.4062 38.465 54.3112 38.365 54.2012 38.285C54.0912 38.195 53.9612 38.125 53.8112 38.075C53.6712 38.025 53.5112 38 53.3312 38C53.1012 38 52.8962 38.04 52.7162 38.12C52.5362 38.2 52.3862 38.31 52.2662 38.45C52.1462 38.58 52.0512 38.735 51.9812 38.915C51.9212 39.085 51.8762 39.26 51.8462 39.44ZM58.3759 44V39.575C58.3759 38.935 58.5309 38.355 58.8409 37.835C59.1509 37.315 59.5909 36.9 60.1609 36.59C60.7409 36.28 61.4259 36.125 62.2159 36.125C63.0159 36.125 63.6959 36.28 64.2559 36.59C64.8259 36.9 65.2609 37.315 65.5609 37.835C65.8609 38.355 66.0109 38.935 66.0109 39.575V44H63.6859V39.635C63.6859 39.365 63.6209 39.12 63.4909 38.9C63.3609 38.67 63.1809 38.49 62.9509 38.36C62.7309 38.22 62.4809 38.15 62.2009 38.15C61.9109 38.15 61.6509 38.22 61.4209 38.36C61.2009 38.49 61.0259 38.67 60.8959 38.9C60.7659 39.12 60.7009 39.365 60.7009 39.635V44H58.3759ZM71.8256 44V41.9H76.3106C76.5106 41.9 76.6906 41.85 76.8506 41.75C77.0106 41.65 77.1356 41.52 77.2256 41.36C77.3256 41.2 77.3756 41.025 77.3756 40.835C77.3756 40.635 77.3256 40.455 77.2256 40.295C77.1356 40.135 77.0106 40.005 76.8506 39.905C76.6906 39.805 76.5106 39.755 76.3106 39.755H74.6906C74.0806 39.755 73.5256 39.635 73.0256 39.395C72.5256 39.155 72.1256 38.805 71.8256 38.345C71.5356 37.875 71.3906 37.315 71.3906 36.665C71.3906 36.025 71.5306 35.47 71.8106 35C72.0906 34.53 72.4706 34.165 72.9506 33.905C73.4306 33.635 73.9606 33.5 74.5406 33.5H79.1756V35.6H74.8256C74.6456 35.6 74.4806 35.645 74.3306 35.735C74.1806 35.825 74.0656 35.945 73.9856 36.095C73.9056 36.245 73.8656 36.41 73.8656 36.59C73.8656 36.77 73.9056 36.935 73.9856 37.085C74.0656 37.225 74.1806 37.34 74.3306 37.43C74.4806 37.52 74.6456 37.565 74.8256 37.565H76.5206C77.1906 37.565 77.7706 37.695 78.2606 37.955C78.7606 38.205 79.1456 38.56 79.4156 39.02C79.6956 39.47 79.8356 40 79.8356 40.61C79.8356 41.33 79.6906 41.945 79.4006 42.455C79.1206 42.955 78.7406 43.34 78.2606 43.61C77.7806 43.87 77.2506 44 76.6706 44H71.8256ZM85.2485 36.125C85.8985 36.125 86.4735 36.23 86.9735 36.44C87.4835 36.64 87.9135 36.93 88.2635 37.31C88.6235 37.68 88.8985 38.12 89.0885 38.63C89.2785 39.13 89.3735 39.685 89.3735 40.295C89.3735 41.055 89.2135 41.73 88.8935 42.32C88.5835 42.9 88.1535 43.355 87.6035 43.685C87.0535 44.015 86.4135 44.18 85.6835 44.18C85.3735 44.18 85.0785 44.14 84.7985 44.06C84.5285 43.98 84.2785 43.865 84.0485 43.715C83.8285 43.565 83.6435 43.38 83.4935 43.16H83.4485V47.255H81.1235V40.295C81.1235 39.445 81.2935 38.71 81.6335 38.09C81.9735 37.47 82.4535 36.99 83.0735 36.65C83.6935 36.3 84.4185 36.125 85.2485 36.125ZM85.2485 38.135C84.8885 38.135 84.5735 38.225 84.3035 38.405C84.0435 38.575 83.8435 38.815 83.7035 39.125C83.5635 39.425 83.4935 39.765 83.4935 40.145C83.4935 40.525 83.5635 40.865 83.7035 41.165C83.8435 41.465 84.0435 41.705 84.3035 41.885C84.5735 42.055 84.8885 42.14 85.2485 42.14C85.6085 42.14 85.9185 42.055 86.1785 41.885C86.4385 41.705 86.6385 41.465 86.7785 41.165C86.9285 40.865 87.0035 40.525 87.0035 40.145C87.0035 39.765 86.9285 39.425 86.7785 39.125C86.6385 38.815 86.4385 38.575 86.1785 38.405C85.9185 38.225 85.6085 38.135 85.2485 38.135ZM93.8389 44.18C93.1589 44.18 92.5589 44.005 92.0389 43.655C91.5189 43.305 91.1139 42.835 90.8239 42.245C90.5339 41.645 90.3889 40.97 90.3889 40.22C90.3889 39.44 90.5589 38.745 90.8989 38.135C91.2389 37.515 91.7189 37.025 92.3389 36.665C92.9689 36.305 93.7089 36.125 94.5589 36.125C95.4189 36.125 96.1489 36.305 96.7489 36.665C97.3589 37.015 97.8239 37.5 98.1439 38.12C98.4739 38.73 98.6389 39.415 98.6389 40.175V44H96.3589V42.77H96.2989C96.1589 43.04 95.9789 43.285 95.7589 43.505C95.5389 43.715 95.2689 43.88 94.9489 44C94.6389 44.12 94.2689 44.18 93.8389 44.18ZM94.5289 42.17C94.8789 42.17 95.1839 42.085 95.4439 41.915C95.7139 41.735 95.9189 41.49 96.0589 41.18C96.1989 40.87 96.2689 40.525 96.2689 40.145C96.2689 39.775 96.1989 39.44 96.0589 39.14C95.9189 38.84 95.7139 38.605 95.4439 38.435C95.1839 38.255 94.8789 38.165 94.5289 38.165C94.1689 38.165 93.8539 38.255 93.5839 38.435C93.3139 38.605 93.1089 38.84 92.9689 39.14C92.8289 39.44 92.7589 39.775 92.7589 40.145C92.7589 40.525 92.8289 40.87 92.9689 41.18C93.1089 41.49 93.3139 41.735 93.5839 41.915C93.8539 42.085 94.1689 42.17 94.5289 42.17ZM100.298 44V38.57C100.298 37.87 100.498 37.32 100.898 36.92C101.298 36.52 101.853 36.32 102.563 36.32H104.798V38.21H103.133C102.993 38.21 102.873 38.26 102.773 38.36C102.673 38.45 102.623 38.57 102.623 38.72V44H100.298ZM105.837 44V33.05H108.162V39.215H109.182L110.937 36.305H113.532L111.462 39.515C112.062 39.765 112.527 40.15 112.857 40.67C113.197 41.18 113.367 41.78 113.367 42.47V44H111.027V42.47C111.027 42.19 110.957 41.94 110.817 41.72C110.687 41.49 110.512 41.31 110.292 41.18C110.072 41.05 109.822 40.985 109.542 40.985H108.162V44H105.837Z" fill="#795741"/>
<defs>
<linearGradient id="paint0_linear_1239_24629" x1="21.3868" y1="18.2119" x2="21.3868" y2="1.00003" gradientUnits="userSpaceOnUse">
<stop stop-color="#DEA14C"/>
<stop offset="1" stop-color="#CF8A45"/>
</linearGradient>
</defs>
</svg>
