<svg width="78" height="43" viewBox="0 0 78 43" fill="none" xmlns="http://www.w3.org/2000/svg">
<path d="M14.21 13.1895L5.94943 4.92889L9.40954 1.46878L18.9815 1.46878L22.4561 4.94339M14.21 13.1895L22.4561 4.94339M14.21 13.1895L18.1195 4.94339L15.5437 1.46878M22.4561 4.94339L5.94943 4.94339M14.2028 12.9979L10.3841 4.94339L12.9599 1.46878" stroke="white" stroke-width="1.19194" stroke-miterlimit="10"/>
<path d="M26.8941 34.1091C25.4921 36.8258 23.2225 38.996 20.4457 40.2748C17.6689 41.5537 14.5444 41.8678 11.5687 41.1673C8.59293 40.4667 5.93667 38.7918 4.02201 36.4085C2.10735 34.0252 1.04415 31.0704 1.00134 28.0136C0.958543 24.9569 1.9386 21.9734 3.78578 19.5375C5.63296 17.1016 8.24128 15.3529 11.1963 14.5693C14.1512 13.7858 17.2833 14.0123 20.0948 15.2129C22.9062 16.4135 25.2358 18.5193 26.7133 21.1957" stroke="white" stroke-width="1.58925" stroke-linecap="round" stroke-linejoin="round"/>
<path d="M14.9737 33.4006C14.5787 33.4006 14.2383 33.3291 13.9522 33.1861C13.673 33.0499 13.4585 32.849 13.3087 32.5834C13.1657 32.3178 13.0942 32.0046 13.0942 31.6437C13.0942 31.5552 13.0976 31.4632 13.1044 31.3679C13.1113 31.2794 13.1215 31.1874 13.1351 31.0921C12.5767 31.0921 12.0728 31.0002 11.6233 30.8163C11.1739 30.6257 10.7892 30.3669 10.4691 30.04C10.1491 29.7063 9.90391 29.3216 9.73367 28.8858C9.56343 28.45 9.47831 27.9869 9.47831 27.4966C9.47831 26.9995 9.56343 26.5365 9.73367 26.1075C9.90391 25.6716 10.1491 25.2903 10.4691 24.9634C10.7892 24.6298 11.1739 24.371 11.6233 24.1871C12.0728 23.9965 12.5733 23.9011 13.1249 23.9011C13.6765 23.9011 14.177 23.9931 14.6264 24.1769C15.0758 24.354 15.4606 24.6059 15.7806 24.9328C16.1007 25.2528 16.3458 25.624 16.5161 26.0462C16.6863 26.4616 16.7714 26.911 16.7714 27.3945V31.4598C16.7714 31.8139 16.7067 32.1374 16.5774 32.4302C16.448 32.7298 16.2505 32.9648 15.9849 33.135C15.7193 33.3121 15.3823 33.4006 14.9737 33.4006ZM14.8818 32.0931C15.0248 32.0931 15.1303 32.0352 15.1984 31.9195C15.2733 31.8105 15.3108 31.6641 15.3108 31.4803V29.6825C15.161 29.8119 15.0316 29.9447 14.9226 30.0809C14.8137 30.2103 14.7251 30.3499 14.657 30.4997C14.5889 30.6427 14.5379 30.7959 14.5038 30.9593C14.4698 31.1228 14.4528 31.2964 14.4528 31.4803C14.4528 31.6096 14.4698 31.7186 14.5038 31.8071C14.5447 31.9025 14.5992 31.974 14.6673 32.0216C14.7354 32.0693 14.8069 32.0931 14.8818 32.0931ZM13.1249 29.8051C13.2202 29.8051 13.3121 29.8017 13.4007 29.7949C13.4892 29.7813 13.5777 29.7642 13.6662 29.7438C13.782 29.5668 13.9182 29.3897 14.0748 29.2127C14.2314 29.0356 14.4119 28.862 14.6162 28.6917C14.8205 28.5215 15.052 28.358 15.3108 28.2014V27.3945C15.3108 27.0812 15.2563 26.7918 15.1473 26.5262C15.0384 26.2539 14.8852 26.0189 14.6877 25.8214C14.4902 25.624 14.2587 25.4708 13.9931 25.3618C13.7275 25.246 13.4381 25.1882 13.1249 25.1882C12.8116 25.1882 12.5222 25.246 12.2566 25.3618C11.9911 25.4776 11.7595 25.641 11.5621 25.8521C11.3646 26.0564 11.2114 26.3015 11.1024 26.5875C10.9935 26.8667 10.939 27.1698 10.939 27.4966C10.939 27.8235 10.9935 28.1299 11.1024 28.4159C11.2114 28.6951 11.3646 28.9403 11.5621 29.1514C11.7595 29.3557 11.9911 29.5157 12.2566 29.6314C12.5222 29.7472 12.8116 29.8051 13.1249 29.8051ZM20.4481 31.2964C19.9101 31.2964 19.43 31.1772 19.0078 30.9389C18.5856 30.6937 18.252 30.3669 18.0068 29.9583C17.7617 29.5429 17.6391 29.0799 17.6391 28.5691C17.6391 28.0584 17.7617 27.5988 18.0068 27.1902C18.252 26.7748 18.5856 26.4479 19.0078 26.2096C19.43 25.9645 19.9101 25.8419 20.4481 25.8419C20.986 25.8419 21.4661 25.9645 21.8883 26.2096C22.3105 26.4479 22.6442 26.7748 22.8893 27.1902C23.1345 27.5988 23.2571 28.0584 23.2571 28.5691C23.2571 29.0799 23.1345 29.5429 22.8893 29.9583C22.6442 30.3669 22.3105 30.6937 21.8883 30.9389C21.4661 31.1772 20.986 31.2964 20.4481 31.2964ZM20.4481 30.1013C20.7341 30.1013 20.9792 30.0332 21.1835 29.897C21.3946 29.7608 21.5547 29.577 21.6636 29.3454C21.7794 29.1139 21.8373 28.8551 21.8373 28.5691C21.8373 28.2831 21.7794 28.0244 21.6636 27.7928C21.5547 27.5613 21.3946 27.3775 21.1835 27.2413C20.9792 27.1051 20.7341 27.037 20.4481 27.037C20.1621 27.037 19.9135 27.1051 19.7024 27.2413C19.4981 27.3775 19.3381 27.5613 19.2224 27.7928C19.1134 28.0244 19.0589 28.2831 19.0589 28.5691C19.0589 28.8551 19.1134 29.1139 19.2224 29.3454C19.3381 29.577 19.4981 29.7608 19.7024 29.897C19.9135 30.0332 20.1621 30.1013 20.4481 30.1013ZM24.2797 31.1738V23.7173H25.6791V31.1738H24.2797ZM29.4442 31.2964C29.0083 31.2964 28.6168 31.2283 28.2695 31.0921C27.929 30.9491 27.643 30.7516 27.4115 30.4997C27.18 30.2409 27.0029 29.9413 26.8803 29.6008C26.7578 29.2535 26.6965 28.8756 26.6965 28.467C26.6965 27.9495 26.7986 27.4966 27.0029 27.1085C27.214 26.7135 27.5068 26.4037 27.8813 26.179C28.2627 25.9542 28.7053 25.8419 29.2092 25.8419C29.4271 25.8419 29.6348 25.8725 29.8323 25.9338C30.0366 25.9951 30.2205 26.0836 30.3839 26.1994C30.5473 26.3151 30.6801 26.4513 30.7823 26.608H30.7925V23.7173H32.1918V28.467C32.1918 29.039 32.0795 29.5395 31.8548 29.9685C31.6301 30.3907 31.3134 30.7176 30.9048 30.9491C30.4962 31.1806 30.0094 31.2964 29.4442 31.2964ZM29.4442 30.1013C29.7234 30.1013 29.9617 30.0332 30.1592 29.897C30.3567 29.7608 30.5065 29.577 30.6086 29.3454C30.7176 29.1139 30.772 28.8551 30.772 28.5691C30.772 28.2831 30.7176 28.0244 30.6086 27.7928C30.5065 27.5613 30.3567 27.3775 30.1592 27.2413C29.9617 27.1051 29.7234 27.037 29.4442 27.037C29.1718 27.037 28.9334 27.1051 28.7291 27.2413C28.5317 27.3775 28.3784 27.5613 28.2695 27.7928C28.1674 28.0244 28.1163 28.2831 28.1163 28.5691C28.1163 28.8551 28.1674 29.1139 28.2695 29.3454C28.3784 29.577 28.5317 29.7608 28.7291 29.897C28.9334 30.0332 29.1718 30.1013 29.4442 30.1013ZM36.0919 31.1738C35.4994 31.1738 34.9819 31.0615 34.5393 30.8368C34.1034 30.6052 33.763 30.292 33.5178 29.897C33.2795 29.5021 33.1603 29.0594 33.1603 28.5691C33.1603 28.0176 33.2727 27.5375 33.4974 27.1289C33.7221 26.7203 34.0285 26.4037 34.4167 26.179C34.8048 25.9542 35.2441 25.8419 35.7344 25.8419C36.32 25.8419 36.7933 25.9645 37.1542 26.2096C37.5219 26.4547 37.7909 26.785 37.9611 27.2004C38.1313 27.609 38.2165 28.0652 38.2165 28.5691C38.2165 28.6372 38.2131 28.719 38.2063 28.8143C38.1994 28.9028 38.1892 28.9709 38.1756 29.0186H34.6516C34.7061 29.2297 34.798 29.4067 34.9274 29.5497C35.0636 29.6927 35.2304 29.8017 35.4279 29.8766C35.6322 29.9447 35.8603 29.9787 36.1123 29.9787H37.5627V31.1738H36.0919ZM34.6414 28.0788H36.8171C36.8035 27.9495 36.7796 27.8303 36.7456 27.7213C36.7115 27.6056 36.6639 27.5034 36.6026 27.4149C36.5413 27.3264 36.4698 27.2515 36.3881 27.1902C36.3064 27.1289 36.211 27.0812 36.1021 27.0472C35.9931 27.0131 35.874 26.9961 35.7446 26.9961C35.5743 26.9961 35.4211 27.0268 35.2849 27.088C35.1555 27.1493 35.0466 27.231 34.9581 27.3332C34.8695 27.4353 34.798 27.5511 34.7435 27.6805C34.6959 27.8099 34.6618 27.9427 34.6414 28.0788ZM39.2024 31.1738V28.181C39.2024 27.752 39.3011 27.3604 39.4986 27.0063C39.7029 26.6522 39.9957 26.3696 40.3771 26.1585C40.7584 25.9474 41.2147 25.8419 41.7458 25.8419C42.2838 25.8419 42.74 25.9474 43.1145 26.1585C43.4959 26.3696 43.7853 26.6522 43.9828 27.0063C44.1871 27.3604 44.2892 27.752 44.2892 28.181V31.1738H42.8898V28.181C42.8898 27.9699 42.8388 27.7792 42.7366 27.609C42.6345 27.4319 42.4949 27.2923 42.3178 27.1902C42.1476 27.088 41.9569 27.037 41.7458 27.037C41.5347 27.037 41.3406 27.088 41.1636 27.1902C40.9933 27.2923 40.8571 27.4319 40.755 27.609C40.6529 27.7792 40.6018 27.9699 40.6018 28.181V31.1738H39.2024ZM48.3605 31.1738V29.8868H51.4248C51.5746 29.8868 51.7108 29.8494 51.8334 29.7744C51.956 29.6995 52.0547 29.6008 52.1296 29.4782C52.2045 29.3488 52.242 29.2092 52.242 29.0594C52.242 28.9028 52.2045 28.7632 52.1296 28.6406C52.0547 28.5113 51.956 28.4091 51.8334 28.3342C51.7108 28.2593 51.5746 28.2218 51.4248 28.2218H50.2297C49.8279 28.2218 49.4636 28.1401 49.1368 27.9767C48.8099 27.8133 48.5477 27.5783 48.3503 27.2719C48.1596 26.9587 48.0642 26.5841 48.0642 26.1483C48.0642 25.7193 48.1562 25.3482 48.34 25.0349C48.5239 24.7149 48.7725 24.4663 49.0857 24.2893C49.3989 24.1122 49.7462 24.0237 50.1276 24.0237H53.2328V25.3107H50.2706C50.1344 25.3107 50.0084 25.3482 49.8926 25.4231C49.7769 25.4912 49.6849 25.5831 49.6168 25.6989C49.5556 25.8146 49.5249 25.944 49.5249 26.087C49.5249 26.23 49.5556 26.3594 49.6168 26.4752C49.6849 26.5909 49.7769 26.6829 49.8926 26.751C50.0084 26.8191 50.1344 26.8531 50.2706 26.8531H51.5065C51.9492 26.8531 52.3339 26.9382 52.6608 27.1085C52.9876 27.2787 53.2396 27.517 53.4166 27.8235C53.6005 28.1299 53.6924 28.4874 53.6924 28.896C53.6924 29.3795 53.5971 29.7915 53.4064 30.132C53.2226 30.4724 52.9706 30.7312 52.6505 30.9083C52.3373 31.0853 51.99 31.1738 51.6087 31.1738H48.3605ZM57.4102 25.8419C57.8529 25.8419 58.2444 25.9134 58.5849 26.0564C58.9254 26.1926 59.2114 26.3901 59.4429 26.6488C59.6745 26.9008 59.8515 27.2004 59.9741 27.5477C60.0967 27.8882 60.1579 28.2627 60.1579 28.6713C60.1579 29.182 60.0524 29.6348 59.8413 30.0298C59.637 30.4248 59.3476 30.7346 58.9731 30.9593C58.5985 31.184 58.1559 31.2964 57.6452 31.2964C57.4273 31.2964 57.2162 31.2658 57.0119 31.2045C56.8144 31.1432 56.6339 31.0547 56.4705 30.9389C56.3139 30.8231 56.1811 30.6869 56.0722 30.5303H56.0619V33.421H54.6626V28.6713C54.6626 28.0925 54.7749 27.592 54.9996 27.1698C55.2243 26.7476 55.541 26.4207 55.9496 26.1892C56.365 25.9576 56.8519 25.8419 57.4102 25.8419ZM57.4102 27.037C57.1379 27.037 56.8995 27.1051 56.6952 27.2413C56.4978 27.3775 56.3445 27.5613 56.2356 27.7928C56.1334 28.0244 56.0824 28.2831 56.0824 28.5691C56.0824 28.8551 56.1334 29.1139 56.2356 29.3454C56.3445 29.577 56.4978 29.7608 56.6952 29.897C56.8995 30.0332 57.1379 30.1013 57.4102 30.1013C57.6894 30.1013 57.9278 30.0332 58.1253 29.897C58.3227 29.7608 58.4726 29.577 58.5747 29.3454C58.6836 29.1139 58.7381 28.8551 58.7381 28.5691C58.7381 28.2831 58.6836 28.0244 58.5747 27.7928C58.4726 27.5613 58.3227 27.3775 58.1253 27.2413C57.9278 27.1051 57.6894 27.037 57.4102 27.037ZM63.2306 31.2964C62.7539 31.2964 62.3385 31.1738 61.9844 30.9287C61.6303 30.6835 61.3545 30.3567 61.157 29.9481C60.9664 29.5327 60.871 29.0765 60.871 28.5794C60.871 28.0686 60.98 27.6056 61.1979 27.1902C61.4226 26.7748 61.7427 26.4479 62.1581 26.2096C62.5734 25.9645 63.0705 25.8419 63.6494 25.8419C64.235 25.8419 64.7287 25.9645 65.1305 26.2096C65.5322 26.4547 65.8387 26.785 66.0498 27.2004C66.2609 27.6158 66.3664 28.0754 66.3664 28.5794V31.1738H64.967V30.3056H64.9466C64.8445 30.4895 64.7151 30.6563 64.5585 30.8061C64.4086 30.9559 64.2248 31.0751 64.0069 31.1636C63.789 31.2521 63.5302 31.2964 63.2306 31.2964ZM63.6289 30.1013C63.9013 30.1013 64.1363 30.0332 64.3337 29.897C64.5312 29.7608 64.681 29.577 64.7832 29.3454C64.8921 29.1071 64.9466 28.8449 64.9466 28.5589C64.9466 28.2729 64.8921 28.0176 64.7832 27.7928C64.681 27.5613 64.5312 27.3775 64.3337 27.2413C64.1363 27.1051 63.9013 27.037 63.6289 27.037C63.3497 27.037 63.108 27.1051 62.9037 27.2413C62.7062 27.3775 62.553 27.5613 62.4441 27.7928C62.3419 28.0176 62.2908 28.2729 62.2908 28.5589C62.2908 28.8449 62.3419 29.1071 62.4441 29.3454C62.553 29.577 62.7062 29.7608 62.9037 29.897C63.108 30.0332 63.3497 30.1013 63.6289 30.1013ZM67.6401 31.1738V27.4455C67.6401 26.9825 67.7695 26.6216 68.0283 26.3628C68.2938 26.0972 68.6582 25.9645 69.1212 25.9645H70.5614V27.1595H69.3664C69.2778 27.1595 69.1995 27.1902 69.1314 27.2515C69.0701 27.3128 69.0395 27.3911 69.0395 27.4864V31.1738H67.6401ZM71.3321 31.1738V23.7173H72.7315V27.9563H73.5588L74.8152 25.9645H76.3474L74.9174 28.1708C75.36 28.3546 75.7039 28.6372 75.949 29.0186C76.1942 29.3999 76.3167 29.8255 76.3167 30.2954V31.1738H74.9174V30.2954C74.9174 30.0843 74.8629 29.8936 74.7539 29.7234C74.6518 29.5463 74.5156 29.4067 74.3454 29.3046C74.1751 29.2024 73.9844 29.1514 73.7733 29.1514H72.7315V31.1738H71.3321Z" fill="white"/>
</svg>
