<svg width="76" height="70" viewBox="0 0 76 70" fill="none" xmlns="http://www.w3.org/2000/svg">
<path d="M37.9873 0V7.87805" stroke="white" stroke-width="2.4878"/>
<path d="M48.7685 5.39062L46.6953 9.9516" stroke="white" stroke-width="2.4878"/>
<path d="M59.5484 8.29297L54.1582 14.0978" stroke="white" stroke-width="2.4878"/>
<path d="M63.6946 17.8291L59.9629 20.7315" stroke="white" stroke-width="2.4878"/>
<path d="M6.88965 28.1953H13.9384" stroke="white" stroke-width="2.4878"/>
<path d="M62.0361 28.1953H69.0849" stroke="white" stroke-width="2.4878"/>
<path d="M12.2803 17.8291L17.2559 20.7315" stroke="white" stroke-width="2.4878"/>
<path d="M16.8408 8.29297L22.2311 13.6832" stroke="white" stroke-width="2.4878"/>
<path d="M28.0361 5.80469L29.6947 9.95103" stroke="white" stroke-width="2.4878"/>
<path d="M57.8906 57.634L61.6223 46.8535L65.354 57.634H57.8906Z" stroke="white" stroke-width="1.65854"/>
<path d="M62.0371 57.6338V62.6094" stroke="white" stroke-width="1.65854"/>
<path d="M10.6211 51.4143L14.3528 40.6338L18.0845 51.4143H10.6211Z" stroke="white" stroke-width="1.65854"/>
<path d="M14.7676 51.4141V56.3897" stroke="white" stroke-width="1.65854"/>
<path d="M31.5 34L23.5 67" stroke="white" stroke-width="3"/>
<path d="M44.5 33L52.4995 67.1706" stroke="white" stroke-width="3"/>
<path d="M1.5 67.9998H0V69.4998H1.5V67.9998ZM1.5 32.7559V31.2559H0V32.7559H1.5ZM74.061 32.7559H75.561V31.2559H74.061V32.7559ZM74.061 67.9998V69.4998H75.561V67.9998H74.061ZM16.4268 66.4998C15.5984 66.4998 14.9268 67.1713 14.9268 67.9998C14.9268 68.8282 15.5984 69.4998 16.4268 69.4998V66.4998ZM11.8659 67.9998V66.4998H1.5V67.9998V69.4998H11.8659V67.9998ZM1.5 67.9998H3V32.7559H1.5H0V67.9998H1.5ZM1.5 32.7559V34.2559H74.061V32.7559V31.2559H1.5V32.7559ZM74.061 32.7559H72.561V67.9998H74.061H75.561V32.7559H74.061ZM74.061 67.9998V66.4998H16.4268V67.9998V69.4998H74.061V67.9998Z" fill="white"/>
<rect x="37.1582" y="36.4883" width="2.4878" height="4.97561" fill="white"/>
<rect x="37.1582" y="43.9512" width="2.4878" height="4.97561" fill="white"/>
<rect x="37.1582" y="51.415" width="2.4878" height="4.97561" fill="white"/>
<rect x="37" y="59" width="3" height="8" fill="white"/>
<rect x="20.5732" y="36.4883" width="4.97561" height="2.4878" fill="white"/>
<rect x="16.4268" y="57.2197" width="4.97561" height="2.4878" fill="white"/>
<rect x="8.13379" y="58.8779" width="4.97561" height="2.4878" fill="white"/>
<rect x="54.5732" y="36.4883" width="4.97561" height="2.4878" fill="white"/>
<rect x="64.5244" y="39.8047" width="4.97561" height="2.4878" fill="white"/>
<rect x="52.085" y="43.1221" width="4.97561" height="2.4878" fill="white"/>
<mask id="path-27-inside-1_1060_76598" fill="white">
<path d="M47.9387 31.9264C47.9387 29.1772 46.8466 26.5406 44.9027 24.5966C42.9587 22.6527 40.3221 21.5605 37.5729 21.5605C34.8237 21.5605 32.1871 22.6527 30.2431 24.5966C28.2991 26.5406 27.207 29.1772 27.207 31.9264L37.5729 31.9264H47.9387Z"/>
</mask>
<path d="M47.9387 31.9264C47.9387 29.1772 46.8466 26.5406 44.9027 24.5966C42.9587 22.6527 40.3221 21.5605 37.5729 21.5605C34.8237 21.5605 32.1871 22.6527 30.2431 24.5966C28.2991 26.5406 27.207 29.1772 27.207 31.9264L37.5729 31.9264H47.9387Z" stroke="white" stroke-width="3.31707" mask="url(#path-27-inside-1_1060_76598)"/>
<mask id="path-28-inside-2_1060_76598" fill="white">
<path d="M57.89 31.9264C57.89 26.538 55.7495 21.3703 51.9393 17.5601C48.1291 13.7499 42.9614 11.6094 37.5729 11.6094C32.1845 11.6094 27.0168 13.7499 23.2066 17.5601C19.3964 21.3703 17.2559 26.538 17.2559 31.9264L37.5729 31.9264H57.89Z"/>
</mask>
<path d="M57.89 31.9264C57.89 26.538 55.7495 21.3703 51.9393 17.5601C48.1291 13.7499 42.9614 11.6094 37.5729 11.6094C32.1845 11.6094 27.0168 13.7499 23.2066 17.5601C19.3964 21.3703 17.2559 26.538 17.2559 31.9264L37.5729 31.9264H57.89Z" stroke="white" stroke-width="3.31707" mask="url(#path-28-inside-2_1060_76598)"/>
</svg>
