<svg width="76" height="84" viewBox="0 0 76 84" fill="none" xmlns="http://www.w3.org/2000/svg">
<path d="M43.3207 65.7173L37.9474 62.79L32.5742 65.7173V71.2885L37.9474 74.6879L43.3207 71.2885V65.7173Z" stroke="white" stroke-width="2.61933"/>
<path d="M40.0099 57.8008H34.7327L27.0566 63.174V74.8799L37.8031 81.5005L48.2617 73.8245V62.7902L40.0099 57.8008Z" stroke="white" stroke-width="2.61933"/>
<path d="M38.1377 73.5361V81.2122" stroke="white" stroke-width="2.61933"/>
<path d="M43.3203 71.4258L47.734 74.3043" stroke="white" stroke-width="2.61933"/>
<path d="M43.3682 65.7645L47.7339 62.79" stroke="white" stroke-width="2.61933"/>
<path d="M37.947 62.7433L38.043 56.8408" stroke="white" stroke-width="2.61933"/>
<path d="M27.7754 63.1738L32.381 65.8604" stroke="white" stroke-width="2.61933"/>
<path d="M32.5734 71.6172L27.2002 74.6876" stroke="white" stroke-width="2.61933"/>
<path d="M35.2129 57.7046V49.165" stroke="white" stroke-width="2.61933"/>
<path d="M40.1055 57.7046V49.165" stroke="white" stroke-width="2.61933"/>
<path d="M33.613 45.5854C34.0288 45.8413 33.0449 45.8264 28.209 44.1377" stroke="white" stroke-width="2"/>
<circle cx="37.6125" cy="45.672" r="4.06355" stroke="white" stroke-width="2.61933"/>
<circle cx="23.2199" cy="42.4103" r="4.06355" stroke="white" stroke-width="2.61933"/>
<circle cx="11.7062" cy="33.1984" r="4.06355" stroke="white" stroke-width="2.61933"/>
<circle cx="5.37322" cy="20.1496" r="4.06355" stroke="white" stroke-width="2.61933"/>
<circle cx="5.37322" cy="5.37322" r="4.06355" stroke="white" stroke-width="2.61933"/>
<path d="M9.01911 29.1686C8.57134 28.4969 7.52229 26.6739 6.9082 24.7549" stroke="white" stroke-width="2.61933"/>
<path d="M19.2853 40.1075C18.4857 39.7237 16.4452 38.4188 14.6797 36.2695" stroke="white" stroke-width="2.61933"/>
<circle cx="52.0051" cy="42.6017" r="4.06355" stroke="white" stroke-width="2.61933"/>
<circle cx="63.5187" cy="33.1984" r="4.06355" stroke="white" stroke-width="2.61933"/>
<circle cx="69.6603" cy="5.37322" r="4.06355" stroke="white" stroke-width="2.61933"/>
<circle cx="69.6603" cy="19.7658" r="4.06355" stroke="white" stroke-width="2.61933"/>
<path d="M70.5244 15.0641V9.88281" stroke="white" stroke-width="2.61933"/>
<path d="M41.4404 46.0449L47.8868 44.2031" stroke="white" stroke-width="2.61933"/>
<path d="M56.3232 40.203C57.4107 39.3075 59.6815 37.382 60.0653 36.8447" stroke="white" stroke-width="2.61933"/>
<path d="M66.2061 29.1691C66.6858 28.4975 68.0708 26.093 68.6082 24.4043" stroke="white" stroke-width="2.61933"/>
<path d="M4.70215 15.2558V9.97852" stroke="white" stroke-width="2.61933"/>
<rect x="49" y="56" width="2" height="3" fill="white"/>
<rect x="54" y="62" width="3" height="2" fill="white"/>
<rect x="52.2891" y="59.2324" width="4.33838" height="2.08139" transform="rotate(-42.5134 52.2891 59.2324)" fill="white"/>
</svg>
