<svg width="84" height="71" viewBox="0 0 84 71" fill="none" xmlns="http://www.w3.org/2000/svg">
<path d="M42.9728 59.2965C39.2327 51.2152 33.0349 30.8449 42.973 4.39697C48.9839 16.4188 55.3954 38.4587 42.9728 59.2965Z" stroke="white" stroke-width="3.5"/>
<path d="M45.1682 60.8426C47.1633 53.5546 57.0205 37.818 79.2386 29.643C76.5868 40.8007 65.922 57.6479 45.1682 60.8426Z" stroke="white" stroke-width="3.5"/>
<path d="M40.3175 60.4747C32.8203 59.533 15.845 52.0068 4.60228 31.1723C16.0232 32.2153 34.2124 40.3836 40.3175 60.4747Z" stroke="white" stroke-width="3.5"/>
<path d="M43.3487 63.1757C48.4436 59.916 62.7246 54.6605 79.6329 62.9458C72.0584 68.177 56.7189 73.6283 43.3487 63.1757Z" stroke="white" stroke-width="3.5"/>
<path d="M4.53381 63.4341C9.32044 67.1316 23.3369 71.1203 40.9117 64.3628C33.8296 58.4823 18.776 54.2049 4.53381 63.4341Z" stroke="white" stroke-width="3.5"/>
<circle cx="69.5139" cy="12.6067" r="7.86744" stroke="white" stroke-width="3.5"/>
</svg>
