<svg width="54" height="18" viewBox="0 0 54 18" fill="none" xmlns="http://www.w3.org/2000/svg">
<path d="M4.61719 4.50241H6.48347L5.55057 2.33076L4.61719 4.50241Z" fill="white"/>
<path d="M14.5391 11.7925V12.8009H17.6779V13.8869H14.5391V15.0506H18.017L19.6287 13.4215L18.1019 11.7925H14.5391Z" fill="white"/>
<path d="M39.0571 2.33076L38.0391 4.50241H39.9904L39.0571 2.33076Z" fill="white"/>
<path d="M23.6197 15.6704V11.2497L21.4141 13.4215L23.6197 15.6704Z" fill="white"/>
<path d="M27.7773 12.4908C27.6924 12.0255 27.3527 11.7925 26.8435 11.7925H25.0625V13.1885H26.9289C27.4377 13.1886 27.7773 12.956 27.7773 12.4908Z" fill="white"/>
<path d="M33.7111 13.0337C33.8808 12.956 33.9659 12.7231 33.9659 12.4909C34.0508 12.1809 33.8808 12.0255 33.7111 11.9479C33.5419 11.8703 33.287 11.8703 33.0329 11.8703H31.3359V13.1114H33.0328C33.2869 13.1114 33.5417 13.1114 33.7111 13.0337Z" fill="white"/>
<path d="M45.9274 0.314285V1.24496L45.4188 0.314285H41.4323V1.24496L40.923 0.314285H35.494C34.561 0.314285 33.7972 0.469547 33.1189 0.779736V0.314285H29.3018V0.391916V0.779736C28.8777 0.469659 28.3688 0.314285 27.6901 0.314285H14.0327L13.0992 2.25327L12.1663 0.314285H9.11267H7.84014V1.24496L7.41597 0.314285H7.33106H3.68352L1.98669 3.95936L0.0358664 7.91474L0 7.99248H0.0358664H4.36218H4.41635L4.44709 7.91474L4.9563 6.75162H6.05901L6.56798 7.99248H11.4876V7.91474V7.0618L11.912 7.99237H14.3718L14.7957 7.0618V7.91474V7.99248H16.7468H26.5021H26.587V5.97587H26.7571C26.9265 5.97587 26.9265 5.97587 26.9265 6.20865V7.91485H33.0342V7.44951C33.5432 7.68252 34.3061 7.91485 35.3242 7.91485H37.8694L38.3783 6.67421H39.5656L40.0746 7.91485H44.9944V7.13944V6.75173L45.7582 7.91485H45.9274H46.0126H49.745V0.314285H45.9277H45.9274ZM17.1712 6.82936H16.3227H15.8139V6.36435V2.56357L15.729 2.74147V2.73935L13.7556 6.82936H13.6931H13.2394H12.5054L10.4696 2.56357V6.82936H7.58566L6.99191 5.66601H4.10746L3.51358 6.82936H2.02244L4.53188 1.40022H6.6524L9.02752 6.59647V1.40022H9.53636H11.2749L11.3149 1.47797H11.3179L12.3881 3.60768L13.1567 5.20335L13.1839 5.12293L14.8804 1.40034H17.1711V6.82936H17.1712ZM23.0245 2.56357H19.7161V3.57177H22.9396V4.65748H19.7161V5.74364H23.0245V6.90665H18.2741V1.40034H23.0245V2.56357ZM29.0749 4.56346C29.0771 4.56524 29.0799 4.56647 29.0826 4.56814C29.1146 4.59915 29.1421 4.63027 29.1655 4.66005C29.328 4.85479 29.4594 5.14446 29.466 5.5692C29.4665 5.57656 29.4668 5.58381 29.4673 5.59117C29.4673 5.59541 29.4682 5.59909 29.4682 5.60344C29.4682 5.60589 29.4679 5.60779 29.4679 5.61013C29.4699 5.65285 29.4711 5.69646 29.4711 5.74364V6.82947H28.1989V6.20876C28.1989 5.89857 28.1989 5.43312 27.9441 5.12293C27.8639 5.04965 27.7828 5.00135 27.6945 4.967C27.5674 4.89171 27.3264 4.89048 26.9265 4.89048H25.3992V6.82947H23.9574V1.40034H27.1811C27.9441 1.40034 28.4533 1.40033 28.8776 1.633C29.2932 1.86121 29.5443 2.23966 29.5538 2.83896C29.5342 3.66434 28.9547 4.11719 28.5381 4.26989C28.5381 4.26989 28.8211 4.32197 29.0749 4.56346ZM31.9314 6.82936H30.4892V1.40022H31.9314V6.82936ZM48.473 6.82936H46.6064L43.892 2.71861V6.13113L43.8831 6.1231V6.83271H42.4501V6.82947H41.0078L40.4989 5.66612H37.5296L37.0207 6.90676H35.409C34.7308 6.90676 33.882 6.75184 33.3733 6.2865C32.8643 5.82116 32.61 5.20067 32.61 4.19259C32.61 3.41706 32.7795 2.64098 33.3733 2.02071C33.7971 1.55504 34.5609 1.40034 35.4938 1.40034H36.8513V2.56357H35.4938C34.9848 2.56357 34.7308 2.64087 34.3908 2.87398C34.1368 3.10654 33.967 3.57177 33.967 4.11462C33.967 4.73522 34.0519 5.12293 34.3908 5.43312C34.6459 5.66612 34.9849 5.74376 35.409 5.74376H36.0027L37.9536 1.47819H38.8023H40.0744L42.4499 6.67443V6.40942V4.65771V4.50278V1.4783H44.5705L47.03 5.27842V1.4783H48.4727V6.82958H48.473V6.82936Z" fill="white"/>
<path d="M27.8647 3.66133C27.8895 3.63713 27.9119 3.60969 27.9309 3.57824C28.0078 3.46703 28.0959 3.26671 28.0484 2.99333C28.0465 2.96823 28.0415 2.94503 28.0356 2.92261C28.034 2.91637 28.0343 2.9109 28.0324 2.90465L28.0316 2.90476C27.9894 2.77192 27.8816 2.69028 27.7742 2.64075C27.6041 2.56346 27.3496 2.56346 27.0953 2.56346H25.3984V3.80455H27.0953C27.3496 3.80455 27.6042 3.80455 27.7742 3.7268C27.7997 3.71498 27.8224 3.69892 27.8442 3.68074L27.8444 3.68174C27.8444 3.68174 27.8532 3.67338 27.8647 3.66133Z" fill="white"/>
<path d="M53.4785 14.5851C53.4785 14.0423 53.3091 13.4992 53.0547 13.1115V9.62157H53.0508V9.38857C53.0508 9.38857 49.4952 9.38857 48.966 9.38857C48.4371 9.38857 47.7951 9.8538 47.7951 9.8538V9.38857H43.8932C43.2991 9.38857 42.5361 9.54383 42.1964 9.8538V9.38857H35.2407V9.62157V9.85369C34.7321 9.4662 33.7982 9.38846 33.3744 9.38846H28.7936V9.62146V9.85357C28.3696 9.46609 27.3512 9.38835 26.842 9.38835H21.753L20.5652 10.5518L19.4623 9.38835H19.1072H18.5293H11.8281V9.62135V10.234V17.222H19.293L20.5195 16.1003L21.5827 17.222H21.6679H25.9692H26.1641H26.2491H26.3335V16.4465V15.4383H26.7579C27.3512 15.4383 28.115 15.4383 28.7087 15.2053V17.1441V17.2995H32.5261V17.1441V15.2829H32.6953C32.9501 15.2829 32.9501 15.2829 32.9501 15.5156V17.1441V17.2995H44.4864C45.2504 17.2995 46.0134 17.1441 46.4374 16.8339V17.1441V17.2995H50.0853C50.8483 17.2995 51.6123 17.222 52.1213 16.9116C52.9023 16.4832 53.3946 15.7248 53.4678 14.8204C53.4712 14.7936 53.4755 14.7668 53.4781 14.74L53.4731 14.7356C53.4763 14.6854 53.4785 14.6358 53.4785 14.5851ZM26.758 14.1199H25.0611V14.352V14.8176V15.283V16.1362H22.2729L20.6501 14.4298L20.6445 14.4355L20.5652 14.352L18.699 16.1362H13.2701V10.7073H18.7839L20.2903 12.2158L20.607 12.5317L20.65 12.491L22.4316 10.7074H26.9273C27.7999 10.7074 28.7769 10.9043 29.1472 11.7159C29.1917 11.8767 29.2176 12.0553 29.2176 12.2583C29.2176 13.8094 28.0299 14.1199 26.758 14.1199ZM35.2407 14.0422C35.4102 14.2743 35.4951 14.585 35.4951 15.0506V16.1361H34.0532V15.4383C34.0532 15.1276 34.0532 14.585 33.7984 14.352C33.6292 14.1199 33.2894 14.1199 32.7808 14.1199H31.254V16.1362H29.812V10.6297H33.0353C33.7135 10.6297 34.3072 10.6297 34.7321 10.8621C35.1559 11.095 35.4951 11.4828 35.4951 12.1033C35.4951 12.9562 34.9016 13.4216 34.4773 13.577C34.9016 13.7314 35.1559 13.887 35.2407 14.0422ZM41.094 11.7926H37.7853V12.8009H41.0089V13.8869H37.7853V14.9729H41.094V16.1361H36.3437V10.6295H41.094V11.7926ZM44.6565 16.1362H41.9419V14.973H44.6565C44.9105 14.973 45.0806 14.973 45.2507 14.8177C45.3356 14.74 45.4199 14.5851 45.4199 14.4299C45.4199 14.2744 45.3356 14.12 45.2507 14.0423C45.1655 13.9648 44.9956 13.8871 44.7412 13.8871C43.3839 13.8095 41.7722 13.8871 41.7722 12.181C41.7722 11.4054 42.2812 10.5521 43.8082 10.5521H46.6074V11.8704H43.9779C43.7235 11.8704 43.5536 11.8704 43.3838 11.948C43.2146 12.0258 43.2146 12.181 43.2146 12.336C43.2146 12.5688 43.3838 12.6464 43.5535 12.7233C43.7235 12.8011 43.893 12.8011 44.0624 12.8011H44.826C45.5896 12.8011 46.0984 12.9562 46.4377 13.2665C46.6923 13.4993 46.862 13.8871 46.862 14.4299C46.862 15.5929 46.0985 16.1362 44.6565 16.1362ZM51.9517 15.5929C51.6128 15.9035 51.0187 16.1362 50.1701 16.1362H47.4562V14.973H50.17C50.4246 14.973 50.5947 14.973 50.7641 14.8177C50.8487 14.74 50.9338 14.5851 50.9338 14.4299C50.9338 14.2744 50.8487 14.12 50.7641 14.0423C50.6792 13.9648 50.5098 13.8871 50.2551 13.8871C48.8983 13.8095 47.2862 13.8871 47.2862 12.1812C47.2862 11.444 47.7474 10.7781 48.885 10.5804C49.021 10.5632 49.1648 10.5521 49.3221 10.5521H52.1217V11.8704H50.2551H49.5767H49.4918C49.2372 11.8704 49.0678 11.8704 48.8983 11.948C48.8129 12.0258 48.728 12.181 48.728 12.336C48.728 12.5688 48.8129 12.6464 49.0678 12.7233C49.2372 12.8011 49.4069 12.8011 49.5767 12.8011H49.661H50.3399C50.7107 12.8011 50.991 12.8429 51.2476 12.9253C51.4825 13.0031 52.2604 13.3212 52.4343 14.1516C52.4495 14.2386 52.4606 14.3294 52.4606 14.4299C52.4606 14.8953 52.2909 15.283 51.9517 15.5929Z" fill="white"/>
</svg>
