<svg width="37" height="25" viewBox="0 0 37 25" fill="none" xmlns="http://www.w3.org/2000/svg">
<path opacity="0.987" fill-rule="evenodd" clip-rule="evenodd" d="M36.5714 1.71429C36.5714 3.11907 36.5714 4.52378 36.5714 5.92857C24.3809 5.92857 12.1905 5.92857 0 5.92857C0 4.52378 0 3.11907 0 1.71429C0.344267 0.692301 1.05855 0.13278 2.14285 0.035716C12.9048 -0.0119053 23.6666 -0.0119053 34.4285 0.035716C35.5128 0.13278 36.2271 0.692301 36.5714 1.71429Z" fill="black"/>
<path opacity="0.992" fill-rule="evenodd" clip-rule="evenodd" d="M0 10.2858C12.1905 10.2858 24.3809 10.2858 36.5714 10.2858C36.5714 14.6191 36.5714 18.9524 36.5714 23.2858C36.2271 24.3077 35.5128 24.8672 34.4285 24.9643C23.6666 25.012 12.9048 25.012 2.14285 24.9643C1.05855 24.8672 0.344267 24.3077 0 23.2858C0 18.9524 0 14.6191 0 10.2858ZM6.49999 14.7143C10.9524 14.7024 15.4048 14.7143 19.8571 14.75C20.523 15.0783 20.5944 15.5069 20.0714 16.0358C19.9762 16.0595 19.8809 16.0834 19.7857 16.1072C15.3809 16.1548 10.9762 16.1548 6.57142 16.1072C5.94916 15.9595 5.77059 15.5905 6.03571 15C6.17949 14.8752 6.33424 14.7799 6.49999 14.7143ZM6.49999 17.6429C9.00013 17.631 11.5001 17.6429 14 17.6786C14.4831 17.8289 14.6617 18.1503 14.5357 18.6429C14.3874 18.8635 14.1851 18.9944 13.9286 19.0358C11.4762 19.0834 9.02378 19.0834 6.57142 19.0358C5.94916 18.8881 5.77059 18.519 6.03571 17.9286C6.17949 17.8038 6.33424 17.7085 6.49999 17.6429Z" fill="black"/>
</svg>
