<svg width="37" height="37" viewBox="0 0 37 37" fill="none" xmlns="http://www.w3.org/2000/svg">
<path d="M34.3427 8.65243C34.303 8.56435 34.2462 8.48499 34.1757 8.4189C34.1052 8.35282 34.0224 8.30131 33.9319 8.26734L31.5811 7.37982C30.8073 6.70134 28.4454 4.66957 27.4295 4.15246C26.3885 3.70098 25.3031 3.35928 24.1912 3.13291C24.1397 3.03082 24.0641 2.94273 23.9711 2.87619C23.8932 2.81933 23.8048 2.7784 23.7111 2.75574C23.6173 2.73309 23.52 2.72915 23.4247 2.74416L6.0483 5.53142C5.95187 5.54486 5.85908 5.57735 5.77534 5.62702C5.69161 5.67668 5.61859 5.74252 5.56056 5.82069C5.50253 5.89886 5.46064 5.98781 5.43734 6.08233C5.41403 6.17686 5.40978 6.27508 5.42483 6.37127L6.89181 15.4372C6.91993 15.6108 7.00946 15.7685 7.14409 15.8816C7.27872 15.9946 7.44949 16.0556 7.6253 16.0533C7.66556 16.057 7.70607 16.057 7.74633 16.0533L18.547 14.2746C18.6421 14.259 18.7332 14.2247 18.8151 14.1739C18.897 14.123 18.968 14.0565 19.0242 13.9782C19.0804 13.8999 19.1206 13.8112 19.1426 13.7174C19.1645 13.6235 19.1678 13.5262 19.1521 13.4311C19.1365 13.336 19.1022 13.2449 19.0514 13.163C19.0005 13.0811 18.934 13.01 18.8557 12.9539C18.7773 12.8977 18.6887 12.8574 18.5948 12.8355C18.501 12.8136 18.4037 12.8103 18.3086 12.826L8.21943 14.4763L6.99817 6.84804L22.9259 4.28082L23.7621 9.6133L22.1778 9.66097C22.1092 9.66429 22.0414 9.67662 21.976 9.69765L19.7169 10.4311C19.5674 10.4798 19.4376 10.5753 19.3464 10.7034C19.2553 10.8315 19.2078 10.9855 19.2108 11.1426C19.1991 11.7364 19.2557 12.3295 19.3795 12.9103C19.5906 13.3322 19.8529 13.7264 20.1607 14.0839C20.2475 14.1898 20.3622 14.2693 20.4918 14.3134C20.6214 14.3574 20.7608 14.3643 20.8941 14.3333L23.7951 13.6475L25.6765 13.8272L28.1997 15.2942C28.272 15.3684 28.3596 15.426 28.4564 15.4629L28.5665 15.5032C28.6349 15.5413 28.7093 15.5673 28.7865 15.5802L30.8439 16.3614C30.9261 16.392 31.013 16.4081 31.1007 16.4091C31.2573 16.4181 31.4127 16.3767 31.5441 16.2909C31.6754 16.2051 31.7758 16.0794 31.8305 15.9323L34.372 9.21355C34.4043 9.12268 34.4183 9.02635 34.4132 8.93007C34.4082 8.83378 34.3842 8.73944 34.3427 8.65243ZM25.9882 12.3786L23.8281 12.1768C23.7504 12.1642 23.6711 12.1642 23.5934 12.1768L21.0262 12.782C20.9342 12.6651 20.8497 12.5426 20.7731 12.4152C20.7331 12.1603 20.7099 11.903 20.7034 11.6451L22.3391 11.1133L24.6496 11.0399H24.7413H24.767L24.8403 11.0216C24.8633 11.0159 24.8855 11.0073 24.9063 10.9959L24.9724 10.9666L25.0347 10.9299L25.0897 10.8859L25.1411 10.8419L25.1887 10.7869L25.2327 10.7319L25.2657 10.6695L25.2988 10.6108L25.3208 10.5412L25.3428 10.4715C25.3448 10.4483 25.3448 10.425 25.3428 10.4018C25.3446 10.3774 25.3446 10.3529 25.3428 10.3285V10.2954C25.3448 10.2796 25.3448 10.2636 25.3428 10.2478V10.2038L24.4626 4.70258C25.2477 4.8812 26.0139 5.13417 26.7511 5.45808C27.4846 5.82482 29.3403 7.38716 30.3855 8.28935L28.3611 13.6695L26.2853 12.4739C26.1937 12.4226 26.0926 12.3901 25.9882 12.3786ZM30.7046 14.7257L29.6777 14.337L31.7021 8.9935L32.729 9.38225L30.7046 14.7257Z" fill="black"/>
<path d="M17.501 7.14521C17.1274 6.85229 16.6892 6.65294 16.2229 6.56376C15.7567 6.47458 15.2758 6.49817 14.8205 6.63255C14.3652 6.76693 13.9486 7.00822 13.6055 7.33628C13.2624 7.66435 13.0027 8.0697 12.848 8.51852C12.6934 8.96734 12.6482 9.44664 12.7164 9.91644C12.7846 10.3862 12.9641 10.8329 13.24 11.2193C13.5159 11.6056 13.8801 11.9204 14.3023 12.1374C14.7246 12.3544 15.1925 12.4673 15.6673 12.4667C15.7898 12.4668 15.9123 12.4595 16.034 12.4447C16.6176 12.3718 17.1666 12.1276 17.6116 11.7432C18.0567 11.3587 18.3779 10.851 18.5348 10.2842C18.6917 9.71734 18.6773 9.11674 18.4933 8.55812C18.3093 7.9995 17.964 7.50786 17.501 7.14521ZM16.8519 10.4202C16.6983 10.6142 16.4994 10.7673 16.2726 10.8662C16.0459 10.965 15.7983 11.0066 15.5517 10.9872C15.3051 10.9677 15.0671 10.8879 14.8587 10.7547C14.6502 10.6216 14.4778 10.4391 14.3565 10.2236C14.2352 10.008 14.1688 9.76588 14.1632 9.51859C14.1576 9.27129 14.213 9.02643 14.3244 8.80558C14.4358 8.58474 14.5998 8.39471 14.8021 8.25225C15.0043 8.10979 15.2384 8.01929 15.4839 7.98872H15.6673C15.9501 7.98968 16.227 8.07 16.4665 8.22055C16.7059 8.37111 16.8983 8.58585 17.0217 8.84035C17.1451 9.09485 17.1947 9.37888 17.1646 9.66013C17.1346 9.94137 17.0262 10.2085 16.8519 10.4312V10.4202Z" fill="black"/>
<path d="M25.9954 28.0934C25.7674 27.8032 25.4385 27.6096 25.0742 27.5511C24.7099 27.4927 24.3369 27.5737 24.0296 27.778L22.5846 28.5114L19.1336 29.3073C19.0902 29.0408 19.01 28.7815 18.8952 28.5371C18.5866 28.1226 18.2226 27.7524 17.8133 27.4369C17.7242 27.3618 17.6186 27.309 17.5051 27.2828C17.3915 27.2567 17.2734 27.2579 17.1605 27.2865L13.5517 28.2144L11.0652 28.1814L7.39773 26.7657V26.1643C7.39773 25.9697 7.32045 25.7832 7.18289 25.6456C7.04534 25.5081 6.85877 25.4308 6.66424 25.4308H3.59091C3.39638 25.4308 3.20981 25.5081 3.07226 25.6456C2.9347 25.7832 2.85742 25.9697 2.85742 26.1643V34.7204C2.85742 34.915 2.9347 35.1015 3.07226 35.2391C3.20981 35.3767 3.39638 35.4539 3.59091 35.4539H6.6459C6.84043 35.4539 7.027 35.3767 7.16456 35.2391C7.30211 35.1015 7.37939 34.915 7.37939 34.7204V34.0273L14.4466 35.4539C14.4953 35.4595 14.5445 35.4595 14.5933 35.4539C14.6678 35.4537 14.742 35.4426 14.8133 35.4209L20.6189 33.5872L20.6776 33.5652L24.345 32.0359C24.4174 32.0071 24.4844 31.9661 24.5431 31.9148L26.0724 30.6019C26.3814 30.3396 26.5758 29.9671 26.6141 29.5636C26.6525 29.1601 26.5318 28.7576 26.2778 28.4418L25.9954 28.0934ZM5.91241 33.987H4.3244V26.8978H5.91241V33.987ZM25.1189 29.4907L23.6739 30.7266L20.1458 32.1936L14.5493 33.9649L7.37939 32.52V28.3354L10.6801 29.6007C10.761 29.6314 10.8466 29.6475 10.9332 29.6484L13.6471 29.685C13.7115 29.6855 13.7757 29.6769 13.8378 29.6594L17.1605 28.8048C17.3258 28.9472 17.4802 29.1017 17.6226 29.2669C17.6812 29.4923 17.7241 29.7215 17.7509 29.9528L15.6458 30.6532L13.57 30.9503C13.3755 30.9639 13.1944 31.0543 13.0664 31.2014C12.9385 31.3486 12.8743 31.5406 12.8879 31.7351C12.9015 31.9297 12.9919 32.1108 13.139 32.2388C13.2862 32.3667 13.4782 32.4309 13.6727 32.4173H13.7791L15.9172 32.1092C15.9611 32.1051 16.0043 32.0952 16.0456 32.0799L18.7962 31.163C18.9636 31.1082 19.1047 30.9932 19.1923 30.8403L23.0064 29.9528C23.0657 29.9375 23.1234 29.9166 23.1788 29.8904L24.7448 29.0799C24.7741 29.0799 24.8218 29.0469 24.8511 29.0249L25.1299 29.3916C25.1373 29.4076 25.1403 29.4252 25.1383 29.4427C25.1364 29.4602 25.1296 29.4768 25.1189 29.4907Z" fill="black"/>
<path d="M21.192 28.4859C21.3865 28.4859 21.5731 28.4086 21.7106 28.2711C21.8482 28.1335 21.9255 27.947 21.9255 27.7524V17.8503C21.9255 17.6558 21.8482 17.4692 21.7106 17.3317C21.5731 17.1941 21.3865 17.1168 21.192 17.1168H9.45615C9.26161 17.1168 9.07505 17.1941 8.93749 17.3317C8.79993 17.4692 8.72266 17.6558 8.72266 17.8503V26.2561C8.72266 26.4506 8.79993 26.6372 8.93749 26.7748C9.07505 26.9123 9.26161 26.9896 9.45615 26.9896C9.65068 26.9896 9.83725 26.9123 9.9748 26.7748C10.1124 26.6372 10.1896 26.4506 10.1896 26.2561V18.5838H13.1566L13.2226 23.0471C13.2234 23.1751 13.2577 23.3007 13.322 23.4113C13.3863 23.522 13.4785 23.6139 13.5894 23.6779C13.7015 23.74 13.828 23.7716 13.9561 23.7696C14.0859 23.7692 14.213 23.7323 14.3229 23.6632L15.3827 23.0214L16.4573 23.6339C16.5698 23.6989 16.6976 23.7328 16.8276 23.7322C16.9575 23.7316 17.085 23.6965 17.1969 23.6305C17.3088 23.5644 17.4012 23.4698 17.4646 23.3564C17.5279 23.2429 17.56 23.1147 17.5575 22.9847L17.4952 18.5838H20.4585V27.7524C20.4585 27.947 20.5358 28.1335 20.6733 28.2711C20.8109 28.4086 20.9975 28.4859 21.192 28.4859ZM15.7422 21.5178C15.6307 21.4534 15.5042 21.4195 15.3754 21.4195C15.2467 21.4195 15.1202 21.4534 15.0087 21.5178L14.6786 21.7158L14.6346 18.6682L16.0429 18.6461L16.0869 21.6938L15.7422 21.5178Z" fill="black"/>
</svg>
