<svg width="25" height="25" viewBox="0 0 25 25" fill="none" xmlns="http://www.w3.org/2000/svg">
<g clip-path="url(#clip0_1435_57327)">
<path d="M1.24658 17.0903C2.9421 21.6599 7.34061 24.9164 12.5002 24.9164C17.6598 24.9164 22.0583 21.6599 23.7538 17.0903L12.5002 16.0469L1.24658 17.0903Z" fill="#FFDA44"/>
<path d="M12.5002 0.916016C7.34061 0.916016 2.9421 4.17252 1.24658 8.74213L12.5002 9.78556L23.7538 8.74208C22.0583 4.17252 17.6598 0.916016 12.5002 0.916016Z" fill="black"/>
<path d="M1.24639 8.74219C0.764047 10.0422 0.5 11.4482 0.5 12.9161C0.5 14.3839 0.764047 15.79 1.24639 17.09H23.7537C24.236 15.79 24.5 14.3839 24.5 12.9161C24.5 11.4482 24.236 10.0422 23.7536 8.74219H1.24639Z" fill="#D80027"/>
</g>
<defs>
<clipPath id="clip0_1435_57327">
<rect width="24" height="24" fill="white" transform="translate(0.5 0.916016)"/>
</clipPath>
</defs>
</svg>
