<svg width="25" height="25" viewBox="0 0 25 25" fill="none" xmlns="http://www.w3.org/2000/svg">
<g clip-path="url(#clip0_1435_56937)">
<path d="M12.5 24.916C19.1274 24.916 24.5 19.5434 24.5 12.916C24.5 6.2886 19.1274 0.916016 12.5 0.916016C5.87258 0.916016 0.5 6.2886 0.5 12.916C0.5 19.5434 5.87258 24.916 12.5 24.916Z" fill="#F0F0F0"/>
<path d="M24.4999 12.9157C24.4999 7.75614 21.2434 3.35763 16.6738 1.66211V24.1694C21.2434 22.4738 24.4999 18.0753 24.4999 12.9157Z" fill="#D80027"/>
<path d="M0.5 12.9157C0.5 18.0753 3.75655 22.4738 8.32611 24.1693V1.66211C3.75655 3.35762 0.5 7.75614 0.5 12.9157Z" fill="#0052B4"/>
</g>
<defs>
<clipPath id="clip0_1435_56937">
<rect width="24" height="24" fill="white" transform="translate(0.5 0.916016)"/>
</clipPath>
</defs>
</svg>
