<svg width="25" height="25" viewBox="0 0 25 25" fill="none" xmlns="http://www.w3.org/2000/svg">
<g clip-path="url(#clip0_1435_57390)">
<path d="M12.5 24.916C19.1274 24.916 24.5 19.5434 24.5 12.916C24.5 6.2886 19.1274 0.916016 12.5 0.916016C5.87258 0.916016 0.5 6.2886 0.5 12.916C0.5 19.5434 5.87258 24.916 12.5 24.916Z" fill="#F0F0F0"/>
<path d="M24.4999 12.9157C24.4999 8.15819 21.7312 4.04745 17.7173 2.10645V23.725C21.7312 21.784 24.4999 17.6733 24.4999 12.9157Z" fill="#D80027"/>
<path d="M0.5 12.9157C0.5 17.6733 3.26867 21.784 7.28263 23.725V2.10645C3.26867 4.04745 0.5 8.15819 0.5 12.9157Z" fill="#D80027"/>
<path d="M14.587 14.481L16.674 13.4376L15.6305 12.9158V11.8724L13.5435 12.9158L14.587 10.8289H13.5435L12.5001 9.26367L11.4566 10.8289H10.4131L11.4566 12.9158L9.36961 11.8724V12.9158L8.32617 13.4376L10.4131 14.481L9.89138 15.5245H11.9783V17.0897H13.0218V15.5245H15.1088L14.587 14.481Z" fill="#D80027"/>
</g>
<defs>
<clipPath id="clip0_1435_57390">
<rect width="24" height="24" fill="white" transform="translate(0.5 0.916016)"/>
</clipPath>
</defs>
</svg>
