<svg width="25" height="25" viewBox="0 0 25 25" fill="none" xmlns="http://www.w3.org/2000/svg">
<path d="M12.5 24.916C19.1274 24.916 24.5 19.5434 24.5 12.916C24.5 6.2886 19.1274 0.916016 12.5 0.916016C5.87258 0.916016 0.5 6.2886 0.5 12.916C0.5 19.5434 5.87258 24.916 12.5 24.916Z" fill="#F0F0F0"/>
<path d="M24.3984 11.3507H9.89136H9.89131V1.20117C8.78234 1.44708 7.73098 1.84566 6.76086 2.37502V11.3506V11.3507H0.601578C0.534781 11.8631 0.5 12.3855 0.5 12.9159C0.5 13.4464 0.534781 13.9688 0.601578 14.4811H6.76081H6.76086V23.4568C7.73098 23.9861 8.78234 24.3848 9.89131 24.6307V14.4813V14.4812H24.3984C24.4651 13.9688 24.5 13.4464 24.5 12.9159C24.5 12.3855 24.4651 11.8631 24.3984 11.3507Z" fill="#0052B4"/>
</svg>
