<svg width="25" height="25" viewBox="0 0 25 25" fill="none" xmlns="http://www.w3.org/2000/svg">
<path d="M12.5 24.916C19.1274 24.916 24.5 19.5434 24.5 12.916C24.5 6.2886 19.1274 0.916016 12.5 0.916016C5.87258 0.916016 0.5 6.2886 0.5 12.916C0.5 19.5434 5.87258 24.916 12.5 24.916Z" fill="#F0F0F0"/>
<path d="M9.89116 11.3508H24.3982C23.6312 5.46298 18.5967 0.916016 12.4998 0.916016C11.6038 0.916016 10.7311 1.01506 9.89111 1.20125V11.3508H9.89116Z" fill="#D80027"/>
<path d="M6.76084 11.3507V2.375C3.46586 4.17284 1.10702 7.47055 0.601562 11.3507H6.76084V11.3507Z" fill="#D80027"/>
<path d="M6.7608 14.4814H0.601562C1.10702 18.3616 3.46586 21.6593 6.76084 23.4571L6.7608 14.4814Z" fill="#D80027"/>
<path d="M9.89111 14.4815V24.631C10.7311 24.8172 11.6038 24.9162 12.4998 24.9162C18.5967 24.9162 23.6312 20.3693 24.3982 14.4814H9.89111V14.4815Z" fill="#D80027"/>
</svg>
