<svg width="30" height="25" viewBox="0 0 30 25" fill="none" xmlns="http://www.w3.org/2000/svg">
<g clip-path="url(#clip0_1239_24656)">
<path d="M19.5 3.4165C22.5376 3.4165 25 5.9165 25 9.4165C25 16.4165 17.5 20.4165 15 21.9165C12.5 20.4165 5 16.4165 5 9.4165C5 5.9165 7.5 3.4165 10.5 3.4165C12.36 3.4165 14 4.4165 15 5.4165C16 4.4165 17.64 3.4165 19.5 3.4165ZM15.9339 19.0203C16.8155 18.465 17.61 17.912 18.3549 17.3194C21.3337 14.9495 23 12.36 23 9.4165C23 7.05726 21.463 5.4165 19.5 5.4165C18.4241 5.4165 17.2593 5.98561 16.4142 6.83071L15 8.24493L13.5858 6.83071C12.7407 5.98561 11.5759 5.4165 10.5 5.4165C8.55906 5.4165 7 7.073 7 9.4165C7 12.36 8.66627 14.9495 11.6451 17.3194C12.39 17.912 13.1845 18.465 14.0661 19.0203C14.3646 19.2084 14.6611 19.3894 15 19.5917C15.3389 19.3894 15.6354 19.2084 15.9339 19.0203Z" fill="black"/>
</g>
<defs>
<clipPath id="clip0_1239_24656">
<rect width="30" height="24" fill="white" transform="translate(0 0.416504)"/>
</clipPath>
</defs>
</svg>
