<svg width="43" height="61" viewBox="0 0 43 61" fill="none" xmlns="http://www.w3.org/2000/svg">
<path fill-rule="evenodd" clip-rule="evenodd" d="M28.0977 0L28.3545 0.255859L34.0752 5.97754L22.4922 17.5605C33.7471 18.1567 42.6902 27.4716 42.6904 38.875C42.6904 50.6635 33.1332 60.2207 21.3447 60.2207C9.55637 60.2205 0 50.6634 0 38.875C0.000177233 27.8601 8.34385 18.7946 19.0557 17.6523L7.36035 5.95605L13.3164 0H28.0977ZM21.3447 19.8604C10.8433 19.8605 2.33027 28.3736 2.33008 38.875C2.33008 49.2127 10.5795 57.6236 20.8545 57.8838L21.3447 57.8906C31.6823 57.8906 40.0932 49.641 40.3535 39.3662L40.3604 38.875C40.3602 28.3735 31.8463 19.8604 21.3447 19.8604ZM16.4941 6.85254L20.79 15.915L25.0869 6.85254H16.4941ZM10.7324 6.85254L18.0039 14.124L14.5566 6.85254H10.7324ZM27.0244 6.85254L23.6875 13.8906L30.7246 6.85254H27.0244ZM14.042 1.75L10.6895 5.10254H14.6699L17.1553 1.75H14.042ZM19.334 1.75L16.8486 5.10254H24.7324L22.2471 1.75H19.334ZM24.4258 1.75L26.9111 5.10254H30.7246L27.3721 1.75H24.4258Z" fill="#DEA14C"/>
</svg>
