<svg width="33" height="21" viewBox="0 0 33 21" fill="none" xmlns="http://www.w3.org/2000/svg">
<path d="M20.7385 2.15137H11.9375V17.9632H20.7385V2.15137Z" fill="#FF5A00"/>
<path d="M12.5232 10.0573C12.5232 6.84484 14.0334 3.99364 16.3508 2.15142C14.6453 0.810445 12.4939 0 10.1472 0C4.58797 0 0.0898438 4.49813 0.0898438 10.0573C0.0898438 15.6165 4.58797 20.1147 10.1472 20.1147C12.4939 20.1147 14.6453 19.3042 16.3508 17.9632C14.0301 16.1471 12.5232 13.2698 12.5232 10.0573Z" fill="#EB001B"/>
<path d="M32.6125 10.0573C32.6125 15.6165 28.1144 20.1147 22.5552 20.1147C20.2085 20.1147 18.0571 19.3042 16.3516 17.9632C18.6983 16.1178 20.1792 13.2698 20.1792 10.0573C20.1792 6.84484 18.669 3.99364 16.3516 2.15142C18.0538 0.810445 20.2052 0 22.552 0C28.1144 0 32.6125 4.52742 32.6125 10.0573Z" fill="#F79E1B"/>
</svg>
