<svg width="434" height="513" viewBox="0 0 434 513" fill="none" xmlns="http://www.w3.org/2000/svg">
<path fill-rule="evenodd" clip-rule="evenodd" d="M76.9526 1.589C49.4296 7.62 28.5306 26.568 19.6136 53.574L17.3026 60.574L16.9786 110.687L16.6536 160.799L14.3276 161.859C10.3926 163.652 4.73963 169.186 2.64163 173.298C-3.37037 185.082 1.22263 199.706 12.9366 206.077L17.5386 208.58L13.5746 212.381C11.3936 214.471 8.75263 218.07 7.70463 220.378C5.21363 225.865 5.18062 235.212 7.63363 240.613C10.9506 247.914 21.0276 255.047 28.0566 255.068L29.8576 255.074L27.2926 258.437C19.2166 269.025 20.5346 283.405 30.3736 292.044C35.3336 296.398 39.9386 298.208 46.4446 298.361L52.5 289.5L62 286.5L71.6785 274.5C71.7747 268.593 69.7769 262.459 65.9426 257.98C62.2926 253.715 54.0376 249.101 50.0266 249.084L47.7966 249.074L50.7836 244.824C52.4256 242.486 54.2836 238.099 54.9116 235.074L56.0536 229.574L54.3546 223.747C52.3736 216.956 46.4156 209.804 41.1536 207.901C39.2846 207.225 37.7556 206.425 37.7556 206.123C37.7556 205.821 39.3316 204.316 41.2576 202.779C48.4216 197.064 51.4726 185.759 48.3716 176.423C46.4886 170.754 42.8806 166.441 36.8256 162.618L32.5746 159.935L32.9436 112.754L33.3116 65.574L36.3436 57.03C38.0116 52.331 41.0846 45.911 43.1736 42.763C50.6916 31.437 64.6336 21.729 77.8586 18.611L84.2556 17.104L135.551 17.089L186.847 17.074L189.301 19.529C192.28 22.507 192.506 26.926 189.848 30.209L187.94 32.565L181.598 33.07L175.256 33.574L174.966 41.824L174.675 50.074H181.037C197.329 50.074 208.206 40.059 208.189 25.074L208.182 18.574L206.008 14.44C203.253 9.202 198.962 4.898 194.076 2.471L190.256 0.574L136.756 0.391L83.2556 0.208L76.9526 1.589ZM70.8081 280.5L64.4386 288.5L54 292.044L51.8116 298.486L51.1426 300.03C50.7756 300.879 49.8806 303.742 49.1536 306.392L47.8336 311.21L48.8116 316.369C50.5716 325.65 57.1506 332.86 66.4606 335.711C71.2016 337.162 78.4266 336.855 81.7826 335.06L83.3086 334.243L83.2986 341.908L83.2896 349.574L85.4306 353.574C89.3266 360.85 96.0876 365.858 103.432 366.909L108.234 367.596L108.927 372.434C111.057 387.33 123.701 399.07 139.342 400.678L145.256 401.286L151.474 399.18C154.895 398.022 157.932 397.074 158.224 397.074C158.517 397.074 158.756 412.042 158.756 430.336V463.598L163.441 467.5L175.756 442.018L195.5 439.074L203.953 421.5L208.756 414.5V404.65L212.964 400.362L217.172 396.074L220.964 399.777L224.756 403.48L234.631 389.368L230.194 385.013L225.756 380.658V366.711V352.764L227.506 354.257C228.468 355.078 234.544 360.144 241.006 365.513L253.564 353.574C249.582 350.379 243.957 345.76 237.839 340.644L216.995 323.214L195.635 341.012L174.276 358.81L171.494 353.016C169.806 349.498 166.719 345.428 163.638 342.658L158.563 338.095L152.054 336.084C145.013 333.91 141.269 333.654 135.639 334.963L132.022 335.803L130.391 332.108C128.14 327.006 122.324 321.456 117.164 319.486L112.843 317.835L106.549 318.308C103.088 318.568 99.5586 319.085 98.7066 319.457L97.1566 320.134L97.5756 313.561C98.0936 305.418 96.1466 299.817 90.9746 294.578C85.9286 289.466 80.4816 287.123 73.5826 287.096L67.9086 287.074L69.4966 283.891C70.0345 282.813 70.4709 281.676 70.8081 280.5ZM175.756 442.018V418.046C175.756 404.861 175.995 394.074 176.288 394.074C176.58 394.074 180.18 396.604 184.288 399.695L191.756 405.316V417.541V429.765L183.756 435.891L175.756 442.018ZM252.756 375.575C252.756 375.529 252.348 375.148 251.621 374.505L256.621 356C258.311 357.32 259.336 358.071 259.47 358.07C259.902 358.068 261.091 356.035 262.112 353.553C267.389 340.722 285.383 331.392 298.087 334.9L301.908 335.955L303.295 332.635C306.96 323.863 315.927 318.101 325.941 318.084C329.068 318.078 332.745 318.5 334.113 319.02L336.6 319.965L336.068 314.77C334.98 304.147 340.163 294.657 349.692 289.824L355.115 287.074H360.263H365.411H370.5L371.5 291L387.123 292.5L392.715 297.771C391.078 298.13 389.386 298.325 387.658 298.341L381.871 298.395L383.295 301.149C384.078 302.663 385.007 306.358 385.36 309.36L386.001 314.819L384.334 319.839C380.384 331.732 367.226 338.961 355.256 335.814L350.256 334.499L350.232 342.537C350.216 348.157 349.698 351.52 348.511 353.718C344.612 360.943 335.763 367.006 329.051 367.052L325.847 367.074L325.223 370.824C323.362 382.029 318.608 389.709 310.004 395.412L304.752 398.893L297.598 400.172L290.445 401.45L284.85 399.912C281.773 399.067 278.469 398.034 277.506 397.618L275.756 396.86V429.943V463.027L248.506 485.701C233.518 498.172 220.31 509.224 219.154 510.261L217.051 512.145L187.904 487.872L169.445 472.5L178.5 446.038L199.433 441.925L208.756 424.036V430.498L212.964 434.786L217.172 439.074L220.964 435.371L224.756 431.668V417.574L233.5 401.286L248.506 395.412L250.542 378.5L250.913 377.127C252.068 376.216 252.756 375.642 252.756 375.575ZM363.403 280.95L363.771 282.074H372.5L375.5 287.074L390.253 288L399.5 295.154C403.591 292.809 406.983 289.259 409.207 284.796C413.306 276.571 412.489 266.629 407.118 259.391C405.819 257.64 404.756 256.01 404.756 255.769C404.756 255.527 406.449 255.059 408.519 254.728C413.684 253.902 421.139 248.964 424.197 244.343C425.593 242.232 427.241 237.995 427.857 234.926L428.977 229.347L427.308 223.604L425.638 217.861L420.805 213.028L415.972 208.194L418.765 207.221C422.919 205.773 429.817 199.125 431.89 194.574C433.007 192.121 433.721 188.201 433.734 184.438L433.756 178.302L430.969 172.938C429.019 169.184 426.693 166.571 423.219 164.234L418.256 160.894L417.688 112.234L417.411 88.5L400.744 107.5C400.752 110.087 400.756 112.766 400.756 115.53V160.619L397.151 162.561C392.008 165.33 386.955 171.666 385.211 177.53C382.539 186.52 385.294 195.789 392.715 202.778L396.62 206.455L392.916 208.114C387.912 210.354 382.914 215.539 380.636 220.854C377.352 228.514 378.542 239.289 383.294 244.937C384.648 246.546 385.756 248.078 385.756 248.341C385.756 248.603 384.063 249.089 381.993 249.42C376.812 250.249 369.371 255.188 366.29 259.843C364.879 261.975 363.201 266.219 362.56 269.273L361.395 274.826L363.403 280.95ZM400.691 97.5C400.552 79.3593 400.19 67.3451 399.672 64.508C399.076 61.244 396.832 54.814 394.687 50.218L390.786 41.862L383.021 34.132C374.632 25.78 366.953 21.316 356.296 18.596L350.336 17.074H298.72H247.105L245.079 19.324C242.24 22.478 241.653 24.672 242.823 27.751C244.359 31.79 246.701 33.007 253.006 33.042L258.756 33.074V41.574V50.074L252.006 50.064L245.256 50.054L240.2 47.7C234.147 44.881 228.141 38.211 226.63 32.627C225.17 27.234 226.059 17.103 228.31 13.484C231.302 8.674 235.028 5.014 239.256 2.732L243.256 0.574L295.756 0.287L348.256 0L356.256 1.609C372.281 4.831 383.503 10.867 395.237 22.574C404.723 32.037 410.449 41.605 414.387 54.574L417.121 63.574L417.347 83L400.691 97.5ZM21.2556 177.241C16.6326 179.987 15.4466 184.761 18.3566 188.915C22.9616 195.489 32.6426 192.47 32.7236 184.435C32.7836 178.55 26.1046 174.36 21.2556 177.241ZM405.12 177.244C402.805 178.365 400.756 182.037 400.756 185.065C400.756 187.543 404.707 191.893 407.256 192.222C411.328 192.747 414.861 191.054 416.164 187.955C417.851 183.942 417.096 180.487 414 178.051C411.258 175.894 408.437 175.638 405.12 177.244ZM25.3906 224.147L22.7556 226.219V230.147C22.7556 235.374 25.4556 238.074 30.6826 238.074H34.6106L36.6826 235.439C39.5546 231.788 39.2826 228.448 35.8326 224.997C32.3816 221.547 29.0416 221.275 25.3906 224.147ZM398.211 224.529C392.832 229.907 396.132 238.074 403.683 238.074H407.611L409.683 235.439C412.555 231.788 412.283 228.448 408.833 224.997C405.226 221.39 401.513 221.226 398.211 224.529ZM44.1126 266.066C39.5236 267.917 37.2816 274.572 40.0376 278.161C44.9646 284.578 54.7556 281.765 54.7556 273.933C54.7556 269.879 53.8046 268.151 50.6836 266.537C47.4936 264.887 47.1026 264.859 44.1126 266.066ZM384.113 266.066C381.308 267.198 378.756 270.917 378.756 273.873C378.756 277.008 383.925 282.074 387.123 282.074C395.487 282.074 397.968 269.732 390.253 266.508C388.365 265.719 386.693 265.103 386.538 265.137C386.383 265.172 385.292 265.59 384.113 266.066ZM69.6166 304.907C67.3636 306.039 66.0016 307.633 65.3686 309.873L64.4386 313.172L66.4486 315.873C67.5546 317.359 69.6816 319.009 71.1756 319.541L73.8916 320.508L76.5736 319.005C78.0486 318.178 79.8326 316.301 80.5386 314.834L81.8206 312.166L80.3956 308.755C79.4576 306.51 77.9396 304.985 75.9516 304.292L72.9326 303.24L69.6166 304.907ZM358.756 303.864C352.672 305.748 350.824 313.233 355.329 317.738L357.903 320.312L361.579 319.723C366.044 319.009 368.756 315.953 368.756 311.638C368.756 306.854 363.157 302.501 358.756 303.864ZM104.041 335.528C98.4776 337.985 98.4136 345.254 103.919 349.352C108.804 352.989 115.756 349.073 115.756 342.685C115.756 336.235 110.167 332.821 104.041 335.528ZM320.796 336.88C317.414 340.262 316.952 343.481 319.357 346.915C322.834 351.879 329.674 351.901 332.68 346.958C335.984 341.526 333.344 335.742 326.98 334.469L323.836 333.84L320.796 336.88ZM135.206 352.481C131.191 354.23 127.054 359.254 125.803 363.901C123.211 373.525 131.633 384.074 141.908 384.074C146.593 384.074 152.9 380.629 155.649 376.568L158.042 373.033V367.574V362.115L155.649 358.58C151.302 352.157 142.19 349.439 135.206 352.481ZM285.206 352.425C281.061 354.306 276.975 359.388 276.174 363.659C274.159 374.403 280.503 383.034 290.965 383.78L296.256 384.158L300.256 381.862C304.842 379.23 308.756 372.534 308.756 367.322C308.756 362.831 305.498 356.739 301.62 353.977C297.729 351.207 289.588 350.437 285.206 352.425ZM194.256 364.191C187.106 370.232 181.449 375.49 181.685 375.874C182.374 376.998 198.611 389.074 199.433 389.074C199.844 389.074 202.11 387.18 204.468 384.866L208.756 380.658V366.866C208.756 359.28 208.418 353.104 208.006 353.14C207.594 353.177 201.406 358.15 194.256 364.191ZM250.506 399.259L242.756 405.17L242.792 417.872L242.827 430.574L250.542 436.25L258.256 441.925L258.536 430.058C258.69 423.531 258.69 412.601 258.536 405.769L258.256 393.347L250.506 399.259ZM189.964 452.918L180.778 459.798L194.178 470.936C201.548 477.062 207.843 482.074 208.167 482.074C208.491 482.074 208.756 476.095 208.756 468.786V455.499L203.953 450.768L199.151 446.038L189.964 452.918ZM229.935 450.392L225.697 454.71L225.977 468.443L226.256 482.177L239.6 471.019C246.939 464.883 252.564 459.529 252.1 459.121C250.284 457.528 234.854 446.074 234.523 446.074C234.33 446.074 232.265 448.017 229.935 450.392Z" fill="#BB947B"/>
</svg>
