<svg width="192" height="177" viewBox="0 0 192 177" fill="none" xmlns="http://www.w3.org/2000/svg">
<path fill-rule="evenodd" clip-rule="evenodd" d="M89.6351 16.7745C115.638 15.0866 137.089 24.0302 153.99 43.6052C171.218 66.7147 174.588 91.7306 164.1 118.654C150.255 146.924 127.507 161.441 95.8567 162.205C69.827 160.763 49.6716 149.227 35.3903 127.597C24.839 109.554 22.117 90.3708 27.2244 70.0471C35.5149 43.8696 52.8186 26.8249 79.1361 18.9131C82.6731 18.1152 86.1728 17.4023 89.6351 16.7745Z" fill="#FBFBFF"/>
<circle cx="168.047" cy="14.5817" r="14.5819" fill="#DEA14C"/>
<circle cx="168.045" cy="14.5812" r="5.63835" fill="white"/>
<circle cx="177.212" cy="153.153" r="14.5819" fill="#DEA14C"/>
<circle cx="177.212" cy="153.153" r="5.63835" fill="white"/>
<circle cx="14.5819" cy="161.582" r="14.5819" fill="#DEA14C"/>
<circle cx="14.5817" cy="161.582" r="5.63835" fill="white"/>
<circle cx="151.547" cy="165.986" r="4.47179" fill="#DEA14C"/>
<circle cx="174.271" cy="43.7455" r="4.47179" fill="#DEA14C"/>
<circle cx="28.839" cy="28.1913" r="4.47179" fill="#DEA14C"/>
<circle cx="13.672" cy="50.745" r="4.47179" fill="#DEA14C"/>
<path d="M169.953 100.169C170.565 96.2297 173.93 92.4358 173.93 88.3206C173.93 84.2054 170.565 80.4114 169.953 76.4722C169.31 72.4258 171.33 67.7752 170.09 63.966C168.836 60.0879 164.461 57.5178 162.633 53.938C160.789 50.32 161.263 45.2716 158.885 42.0055C156.506 38.7317 151.549 37.6302 148.688 34.7771C145.835 31.9163 144.734 26.9598 141.46 24.5809C138.194 22.202 133.145 22.6762 129.527 20.8328C125.948 19.0047 123.378 14.6294 119.499 13.375C115.69 12.1358 111.04 14.1552 106.993 13.5127C103.054 12.9008 99.26 9.53516 95.1448 9.53516C91.0296 9.53516 87.2357 12.9008 83.2964 13.5127C79.25 14.1552 74.5994 12.1359 70.7902 13.375C66.9121 14.6294 64.342 19.0047 60.7623 20.8328C57.1442 22.6762 52.0959 22.202 48.8297 24.5809C45.5559 26.9598 44.4544 31.9163 41.6013 34.7771C38.7406 37.6302 33.784 38.7317 31.4051 42.0055C29.0262 45.2716 29.5005 50.32 27.6571 53.938C25.8289 57.5178 21.4537 60.0879 20.1992 63.966C18.9601 67.7752 20.9794 72.4258 20.3369 76.4722C19.725 80.4115 16.3594 84.2054 16.3594 88.3206C16.3594 92.4358 19.725 96.2297 20.3369 100.169C20.9794 104.215 18.9601 108.866 20.1992 112.675C21.4537 116.553 25.8289 119.123 27.6571 122.703C29.5005 126.321 29.0262 131.37 31.4051 134.636C33.784 137.909 38.7405 139.011 41.6013 141.864C44.4544 144.725 45.5559 149.681 48.8297 152.06C52.0959 154.439 57.1442 153.965 60.7623 155.808C64.342 157.636 66.9121 162.012 70.7902 163.266C74.5994 164.505 79.25 162.486 83.2964 163.128C87.2357 163.74 91.0296 167.106 95.1448 167.106C99.26 167.106 103.054 163.74 106.993 163.128C111.04 162.486 115.69 164.505 119.499 163.266C123.378 162.012 125.948 157.636 129.527 155.808C133.145 153.965 138.194 154.439 141.46 152.06C144.734 149.681 145.835 144.725 148.688 141.864C151.549 139.011 156.506 137.909 158.885 134.636C161.263 131.37 160.789 126.321 162.633 122.703C164.461 119.123 168.836 116.553 170.09 112.675C171.33 108.866 169.31 104.215 169.953 100.169ZM133.535 34.8383L149.729 48.859L89.2015 118.749L62.1391 91.6862L77.2842 76.5487L88.0771 87.3339L133.535 34.8383ZM95.1448 150.087C85.757 150.084 76.4934 147.941 68.0579 143.822C59.6223 139.702 52.2368 133.714 46.4626 126.312C40.6884 118.91 36.6773 110.289 34.7342 101.105C32.7912 91.9204 32.9672 82.4138 35.249 73.3076C37.5308 64.2014 41.8583 55.7351 47.9027 48.5521C53.9471 41.369 61.5492 35.6583 70.1315 31.8538C78.7138 28.0493 88.0504 26.2512 97.4318 26.596C106.813 26.9409 115.993 29.4196 124.272 33.8439L118.092 40.9881C107.011 35.6197 94.3974 34.3122 82.4512 37.2939C70.505 40.2756 59.9849 47.357 52.7265 57.3028C45.4681 67.2485 41.9321 79.427 42.7356 91.7134C43.5391 104 48.6309 115.614 57.1228 124.53C65.6147 133.446 76.9674 139.097 89.2002 140.497C101.433 141.898 113.769 138.959 124.056 132.193C134.344 125.427 141.929 115.264 145.488 103.477C149.048 91.6901 148.356 79.0276 143.533 67.6987L150.103 60.1032C154.933 69.5209 157.262 80.0212 156.868 90.5976C156.474 101.174 153.37 111.472 147.854 120.504C142.337 129.537 134.593 137 125.363 142.18C116.134 147.36 105.729 150.083 95.1448 150.087Z" fill="#DEA14C"/>
</svg>
