<svg width="24" height="25" viewBox="0 0 24 25" fill="none" xmlns="http://www.w3.org/2000/svg">
<path d="M18.031 16.8766L22.3137 21.1593L20.8995 22.5735L16.6168 18.2908C15.0769 19.5228 13.124 20.2598 11 20.2598C6.032 20.2598 2 16.2278 2 11.2598C2 6.29177 6.032 2.25977 11 2.25977C15.968 2.25977 20 6.29177 20 11.2598C20 13.3838 19.263 15.3367 18.031 16.8766ZM16.0247 16.1346C17.2475 14.8744 18 13.1554 18 11.2598C18 7.39227 14.8675 4.25977 11 4.25977C7.1325 4.25977 4 7.39227 4 11.2598C4 15.1273 7.1325 18.2598 11 18.2598C12.8956 18.2598 14.6146 17.5073 15.8748 16.2845L16.0247 16.1346Z" fill="black"/>
</svg>
