<svg width="24" height="25" viewBox="0 0 24 25" fill="none" xmlns="http://www.w3.org/2000/svg">
<path d="M9 6.9165H15C15 5.25965 13.6569 3.9165 12 3.9165C10.3431 3.9165 9 5.25965 9 6.9165ZM7 6.9165C7 4.15508 9.23858 1.9165 12 1.9165C14.7614 1.9165 17 4.15508 17 6.9165H20C20.5523 6.9165 21 7.36422 21 7.9165V21.9165C21 22.4688 20.5523 22.9165 20 22.9165H4C3.44772 22.9165 3 22.4688 3 21.9165V7.9165C3 7.36422 3.44772 6.9165 4 6.9165H7ZM5 8.9165V20.9165H19V8.9165H5ZM9 10.9165C9 12.5734 10.3431 13.9165 12 13.9165C13.6569 13.9165 15 12.5734 15 10.9165H17C17 13.6779 14.7614 15.9165 12 15.9165C9.23858 15.9165 7 13.6779 7 10.9165H9Z" fill="black"/>
</svg>
