<svg width="24" height="25" viewBox="0 0 24 25" fill="none" xmlns="http://www.w3.org/2000/svg">
<path d="M20 22.9165H18V20.9165C18 19.2596 16.6569 17.9165 15 17.9165H9C7.34315 17.9165 6 19.2596 6 20.9165V22.9165H4V20.9165C4 18.1551 6.23858 15.9165 9 15.9165H15C17.7614 15.9165 20 18.1551 20 20.9165V22.9165ZM12 13.9165C8.68629 13.9165 6 11.2302 6 7.9165C6 4.60279 8.68629 1.9165 12 1.9165C15.3137 1.9165 18 4.60279 18 7.9165C18 11.2302 15.3137 13.9165 12 13.9165ZM12 11.9165C14.2091 11.9165 16 10.1256 16 7.9165C16 5.70736 14.2091 3.9165 12 3.9165C9.79086 3.9165 8 5.70736 8 7.9165C8 10.1256 9.79086 11.9165 12 11.9165Z" fill="black"/>
</svg>
