<svg width="34" height="11" viewBox="0 0 34 11" fill="none" xmlns="http://www.w3.org/2000/svg">
<path fill-rule="evenodd" clip-rule="evenodd" d="M13.9782 0.523101L12.301 10.8304H14.9843L16.6617 0.523101H13.9782ZM10.0433 0.523101L7.48493 7.61235L7.18231 6.08578L7.18252 6.08628L7.11584 5.74413C6.80621 5.07684 6.0891 3.80859 4.73501 2.72625C4.33467 2.40632 3.93113 2.13329 3.54102 1.90007L5.86617 10.8304H8.66198L12.9314 0.523101H10.0433ZM20.5159 3.3846C20.5159 2.21927 23.1292 2.36901 24.2776 3.00178L24.6604 0.788057C24.6604 0.788057 23.4787 0.338623 22.2469 0.338623C20.9152 0.338623 17.7529 0.921001 17.7529 3.75077C17.7529 6.41393 21.4644 6.44702 21.4644 7.84521C21.4644 9.24341 18.1356 8.99353 17.037 8.11153L16.6377 10.4254C16.6377 10.4254 17.8359 11.0078 19.667 11.0078C21.4979 11.0078 24.2608 10.0592 24.2608 7.47905C24.2608 4.79924 20.5159 4.54964 20.5159 3.3846ZM31.4659 0.523101H29.3084C28.3122 0.523101 28.0696 1.29124 28.0696 1.29124L24.0678 10.8304H26.8647L27.4242 9.29944H30.8356L31.1503 10.8304H33.6142L31.4659 0.523101ZM28.1975 7.18428L29.6076 3.32706L30.4008 7.18428H28.1975Z" fill="#005BAC"/>
<path fill-rule="evenodd" clip-rule="evenodd" d="M6.31547 1.4936C6.31547 1.4936 6.2044 0.563354 5.01863 0.563354H0.710618L0.660156 0.738182C0.660156 0.738182 2.73093 1.16031 4.71758 2.74184C6.6161 4.25339 7.23543 6.13762 7.23543 6.13762L6.31547 1.4936Z" fill="#F6AC1D"/>
</svg>
