<svg width="43" height="61" viewBox="0 0 43 61" fill="none" xmlns="http://www.w3.org/2000/svg">
<path fill-rule="evenodd" clip-rule="evenodd" d="M28.0977 0L28.3545 0.255859L34.0752 5.97754L22.4922 17.5605C33.7471 18.1567 42.6902 27.4716 42.6904 38.875C42.6904 50.6635 33.1332 60.2207 21.3447 60.2207C9.55637 60.2205 0 50.6634 0 38.875C0.000177233 27.8601 8.34385 18.7946 19.0557 17.6523L7.36035 5.95605L13.3164 0H28.0977ZM21.3447 19.8604C10.8433 19.8605 2.33027 28.3736 2.33008 38.875C2.33008 49.2127 10.5795 57.6236 20.8545 57.8838L21.3447 57.8906C31.6823 57.8906 40.0932 49.641 40.3535 39.3662L40.3604 38.875C40.3602 28.3735 31.8463 19.8604 21.3447 19.8604ZM16.4941 6.85254L20.79 15.915L25.0869 6.85254H16.4941ZM10.7324 6.85254L18.0039 14.124L14.5566 6.85254H10.7324ZM27.0244 6.85254L23.6875 13.8906L30.7246 6.85254H27.0244ZM14.042 1.75L10.6895 5.10254H14.6699L17.1553 1.75H14.042ZM19.334 1.75L16.8486 5.10254H24.7324L22.2471 1.75H19.334ZM24.4258 1.75L26.9111 5.10254H30.7246L27.3721 1.75H24.4258Z" fill="#DEA14C"/>
<path d="M12.2485 38.6034C11.9178 38.6034 11.6352 38.5447 11.4005 38.4274C11.1658 38.31 10.9872 38.1447 10.8645 37.9314C10.7418 37.718 10.6805 37.47 10.6805 37.1874C10.6805 37.1287 10.6805 37.0674 10.6805 37.0034C10.6858 36.9447 10.6938 36.8807 10.7045 36.8114C10.2938 36.806 9.92052 36.7287 9.58452 36.5794C9.24852 36.43 8.95785 36.2274 8.71252 35.9714C8.47252 35.7154 8.28585 35.4194 8.15252 35.0834C8.02452 34.742 7.96052 34.3794 7.96052 33.9954C7.96052 33.6007 8.02718 33.2327 8.16052 32.8914C8.29918 32.55 8.49385 32.2514 8.74452 31.9954C9.00051 31.734 9.30718 31.5314 9.66452 31.3874C10.0218 31.238 10.4192 31.1634 10.8565 31.1634C11.2938 31.1634 11.6912 31.2327 12.0485 31.3714C12.4058 31.51 12.7125 31.7074 12.9685 31.9634C13.2245 32.2194 13.4192 32.5154 13.5525 32.8514C13.6912 33.1874 13.7605 33.5527 13.7605 33.9474V37.0274C13.7605 37.31 13.7045 37.5714 13.5925 37.8114C13.4858 38.0514 13.3205 38.2434 13.0965 38.3874C12.8725 38.5314 12.5898 38.6034 12.2485 38.6034ZM12.1765 37.4594C12.2778 37.4594 12.3552 37.4167 12.4085 37.3314C12.4672 37.2514 12.4965 37.1447 12.4965 37.0114V35.7074C12.3845 35.8034 12.2858 35.902 12.2005 36.0034C12.1205 36.1047 12.0565 36.2114 12.0085 36.3234C11.9605 36.43 11.9232 36.542 11.8965 36.6594C11.8752 36.7714 11.8645 36.8887 11.8645 37.0114C11.8645 37.1074 11.8778 37.1874 11.9045 37.2514C11.9312 37.3207 11.9685 37.3714 12.0165 37.4034C12.0698 37.4407 12.1232 37.4594 12.1765 37.4594ZM10.8085 35.6754C10.8672 35.6754 10.9205 35.6727 10.9685 35.6674C11.0218 35.662 11.0752 35.654 11.1285 35.6434C11.2245 35.4994 11.3365 35.358 11.4645 35.2194C11.5925 35.0754 11.7365 34.9367 11.8965 34.8034C12.0565 34.67 12.2325 34.5447 12.4245 34.4274V33.9074C12.4245 33.678 12.3845 33.4647 12.3045 33.2674C12.2298 33.07 12.1205 32.8994 11.9765 32.7554C11.8378 32.6114 11.6725 32.4994 11.4805 32.4194C11.2938 32.3394 11.0885 32.2994 10.8645 32.2994C10.6405 32.2994 10.4325 32.342 10.2405 32.4274C10.0538 32.5074 9.88852 32.6247 9.74452 32.7794C9.60585 32.934 9.49652 33.1154 9.41652 33.3234C9.34185 33.526 9.30452 33.7474 9.30452 33.9874C9.30452 34.2274 9.33918 34.4487 9.40852 34.6514C9.48318 34.854 9.58718 35.0327 9.72052 35.1874C9.85918 35.3367 10.0192 35.454 10.2005 35.5394C10.3872 35.6247 10.5898 35.67 10.8085 35.6754Z" fill="#795741"/>
<path d="M16.623 36.9554C16.2016 36.9554 15.823 36.862 15.487 36.6754C15.151 36.4887 14.8843 36.2327 14.687 35.9074C14.495 35.582 14.399 35.2167 14.399 34.8114C14.399 34.4007 14.495 34.0354 14.687 33.7154C14.8843 33.39 15.151 33.134 15.487 32.9474C15.823 32.7554 16.2016 32.6594 16.623 32.6594C17.0443 32.6594 17.4203 32.7554 17.751 32.9474C18.087 33.134 18.351 33.39 18.543 33.7154C18.7403 34.0354 18.839 34.4007 18.839 34.8114C18.839 35.2167 18.7403 35.582 18.543 35.9074C18.351 36.2327 18.087 36.4887 17.751 36.6754C17.415 36.862 17.039 36.9554 16.623 36.9554ZM16.623 35.8754C16.8203 35.8754 16.991 35.8274 17.135 35.7314C17.279 35.6354 17.391 35.5074 17.471 35.3474C17.551 35.1874 17.591 35.006 17.591 34.8034C17.591 34.606 17.551 34.4274 17.471 34.2674C17.391 34.1074 17.279 33.9794 17.135 33.8834C16.991 33.7874 16.8203 33.7394 16.623 33.7394C16.4256 33.7394 16.2523 33.7874 16.103 33.8834C15.959 33.9794 15.847 34.1074 15.767 34.2674C15.687 34.4274 15.647 34.606 15.647 34.8034C15.647 35.006 15.687 35.1874 15.767 35.3474C15.847 35.5074 15.959 35.6354 16.103 35.7314C16.2523 35.8274 16.4256 35.8754 16.623 35.8754Z" fill="#795741"/>
<path d="M19.5753 36.8594V31.0194H20.8153V36.8594H19.5753Z" fill="#795741"/>
<path d="M23.7396 36.9554C23.3982 36.9554 23.0889 36.902 22.8116 36.7954C22.5396 36.6887 22.3102 36.5367 22.1236 36.3394C21.9369 36.1367 21.7929 35.8994 21.6916 35.6274C21.5902 35.3554 21.5396 35.0594 21.5396 34.7394C21.5396 34.3234 21.6222 33.9607 21.7876 33.6514C21.9582 33.342 22.1902 33.0994 22.4836 32.9234C22.7822 32.7474 23.1236 32.6594 23.5076 32.6594C23.6729 32.6594 23.8276 32.6807 23.9716 32.7234C24.1209 32.766 24.2542 32.83 24.3716 32.9154C24.4942 32.9954 24.5956 33.0914 24.6756 33.2034H24.6996V31.0194H25.9396V34.7314C25.9396 35.1794 25.8489 35.5714 25.6676 35.9074C25.4862 36.2434 25.2302 36.502 24.8996 36.6834C24.5742 36.8647 24.1876 36.9554 23.7396 36.9554ZM23.7396 35.8834C23.9316 35.8834 24.0969 35.838 24.2356 35.7474C24.3796 35.6514 24.4889 35.5234 24.5636 35.3634C24.6382 35.198 24.6756 35.014 24.6756 34.8114C24.6756 34.6087 24.6382 34.4274 24.5636 34.2674C24.4889 34.1074 24.3796 33.982 24.2356 33.8914C24.0969 33.7954 23.9316 33.7474 23.7396 33.7474C23.5529 33.7474 23.3876 33.7954 23.2436 33.8914C23.0996 33.982 22.9902 34.1074 22.9156 34.2674C22.8409 34.4274 22.8036 34.6087 22.8036 34.8114C22.8036 35.014 22.8409 35.198 22.9156 35.3634C22.9902 35.5234 23.0996 35.6514 23.2436 35.7474C23.3876 35.838 23.5529 35.8834 23.7396 35.8834Z" fill="#795741"/>
<path d="M28.9771 36.8594C28.5131 36.8594 28.1051 36.774 27.7531 36.6034C27.4011 36.4274 27.1265 36.1874 26.9291 35.8834C26.7371 35.574 26.6411 35.2167 26.6411 34.8114C26.6411 34.3634 26.7345 33.9794 26.9211 33.6594C27.1078 33.3394 27.3558 33.094 27.6651 32.9234C27.9798 32.7474 28.3265 32.6594 28.7051 32.6594C29.1371 32.6594 29.4971 32.75 29.7851 32.9314C30.0785 33.1127 30.2998 33.3607 30.4491 33.6754C30.5985 33.9847 30.6731 34.3394 30.6731 34.7394C30.6731 34.8087 30.6678 34.8914 30.6571 34.9874C30.6518 35.078 30.6438 35.15 30.6331 35.2034H27.9451C27.9771 35.342 28.0385 35.4594 28.1291 35.5554C28.2198 35.6514 28.3345 35.7234 28.4731 35.7714C28.6118 35.814 28.7665 35.8354 28.9371 35.8354H30.1931V36.8594H28.9771ZM27.9131 34.4274H29.4731C29.4625 34.342 29.4465 34.2594 29.4251 34.1794C29.4038 34.0994 29.3691 34.03 29.3211 33.9714C29.2785 33.9074 29.2278 33.854 29.1691 33.8114C29.1105 33.7634 29.0411 33.726 28.9611 33.6994C28.8865 33.6727 28.8011 33.6594 28.7051 33.6594C28.5825 33.6594 28.4731 33.6807 28.3771 33.7234C28.2811 33.766 28.2011 33.8247 28.1371 33.8994C28.0731 33.9687 28.0225 34.0514 27.9851 34.1474C27.9531 34.238 27.9291 34.3314 27.9131 34.4274Z" fill="#795741"/>
<path d="M31.3956 36.8594V34.4994C31.3956 34.158 31.4783 33.8487 31.6436 33.5714C31.809 33.294 32.0436 33.0727 32.3476 32.9074C32.657 32.742 33.0223 32.6594 33.4436 32.6594C33.8703 32.6594 34.233 32.742 34.5316 32.9074C34.8356 33.0727 35.0676 33.294 35.2276 33.5714C35.3876 33.8487 35.4676 34.158 35.4676 34.4994V36.8594H34.2276V34.5314C34.2276 34.3874 34.193 34.2567 34.1236 34.1394C34.0543 34.0167 33.9583 33.9207 33.8356 33.8514C33.7183 33.7767 33.585 33.7394 33.4356 33.7394C33.281 33.7394 33.1423 33.7767 33.0196 33.8514C32.9023 33.9207 32.809 34.0167 32.7396 34.1394C32.6703 34.2567 32.6356 34.3874 32.6356 34.5314V36.8594H31.3956Z" fill="#795741"/>
<path d="M10.8462 46.8594V45.7394H13.2382C13.3448 45.7394 13.4408 45.7127 13.5262 45.6594C13.6115 45.606 13.6782 45.5367 13.7262 45.4514C13.7795 45.366 13.8062 45.2727 13.8062 45.1714C13.8062 45.0647 13.7795 44.9687 13.7262 44.8834C13.6782 44.798 13.6115 44.7287 13.5262 44.6754C13.4408 44.622 13.3448 44.5954 13.2382 44.5954H12.3742C12.0488 44.5954 11.7528 44.5314 11.4862 44.4034C11.2195 44.2754 11.0062 44.0887 10.8462 43.8434C10.6915 43.5927 10.6142 43.294 10.6142 42.9474C10.6142 42.606 10.6888 42.31 10.8382 42.0594C10.9875 41.8087 11.1902 41.614 11.4462 41.4754C11.7022 41.3314 11.9848 41.2594 12.2942 41.2594H14.7662V42.3794H12.4462C12.3502 42.3794 12.2622 42.4034 12.1822 42.4514C12.1022 42.4994 12.0408 42.5634 11.9982 42.6434C11.9555 42.7234 11.9342 42.8114 11.9342 42.9074C11.9342 43.0034 11.9555 43.0914 11.9982 43.1714C12.0408 43.246 12.1022 43.3074 12.1822 43.3554C12.2622 43.4034 12.3502 43.4274 12.4462 43.4274H13.3502C13.7075 43.4274 14.0168 43.4967 14.2782 43.6354C14.5448 43.7687 14.7502 43.958 14.8942 44.2034C15.0435 44.4434 15.1182 44.726 15.1182 45.0514C15.1182 45.4354 15.0408 45.7634 14.8862 46.0354C14.7368 46.302 14.5342 46.5074 14.2782 46.6514C14.0222 46.79 13.7395 46.8594 13.4302 46.8594H10.8462Z" fill="#795741"/>
<path d="M18.005 42.6594C18.3517 42.6594 18.6584 42.7154 18.925 42.8274C19.197 42.934 19.4264 43.0887 19.613 43.2914C19.805 43.4887 19.9517 43.7234 20.053 43.9954C20.1544 44.262 20.205 44.558 20.205 44.8834C20.205 45.2887 20.1197 45.6487 19.949 45.9634C19.7837 46.2727 19.5544 46.5154 19.261 46.6914C18.9677 46.8674 18.6264 46.9554 18.237 46.9554C18.0717 46.9554 17.9144 46.934 17.765 46.8914C17.621 46.8487 17.4877 46.7874 17.365 46.7074C17.2477 46.6274 17.149 46.5287 17.069 46.4114H17.045V48.5954H15.805V44.8834C15.805 44.43 15.8957 44.038 16.077 43.7074C16.2584 43.3767 16.5144 43.1207 16.845 42.9394C17.1757 42.7527 17.5624 42.6594 18.005 42.6594ZM18.005 43.7314C17.813 43.7314 17.645 43.7794 17.501 43.8754C17.3624 43.966 17.2557 44.094 17.181 44.2594C17.1064 44.4194 17.069 44.6007 17.069 44.8034C17.069 45.006 17.1064 45.1874 17.181 45.3474C17.2557 45.5074 17.3624 45.6354 17.501 45.7314C17.645 45.822 17.813 45.8674 18.005 45.8674C18.197 45.8674 18.3624 45.822 18.501 45.7314C18.6397 45.6354 18.7464 45.5074 18.821 45.3474C18.901 45.1874 18.941 45.006 18.941 44.8034C18.941 44.6007 18.901 44.4194 18.821 44.2594C18.7464 44.094 18.6397 43.966 18.501 43.8754C18.3624 43.7794 18.197 43.7314 18.005 43.7314Z" fill="#795741"/>
<path d="M22.5866 46.9554C22.2239 46.9554 21.9039 46.862 21.6266 46.6754C21.3493 46.4887 21.1333 46.238 20.9786 45.9234C20.8239 45.6034 20.7466 45.2434 20.7466 44.8434C20.7466 44.4274 20.8373 44.0567 21.0186 43.7314C21.1999 43.4007 21.4559 43.1394 21.7866 42.9474C22.1226 42.7554 22.5173 42.6594 22.9706 42.6594C23.4293 42.6594 23.8186 42.7554 24.1386 42.9474C24.4639 43.134 24.7119 43.3927 24.8826 43.7234C25.0586 44.0487 25.1466 44.414 25.1466 44.8194V46.8594H23.9306V46.2034H23.8986C23.8239 46.3474 23.7279 46.478 23.6106 46.5954C23.4933 46.7074 23.3493 46.7954 23.1786 46.8594C23.0133 46.9234 22.8159 46.9554 22.5866 46.9554ZM22.9546 45.8834C23.1413 45.8834 23.3039 45.838 23.4426 45.7474C23.5866 45.6514 23.6959 45.5207 23.7706 45.3554C23.8453 45.19 23.8826 45.006 23.8826 44.8034C23.8826 44.606 23.8453 44.4274 23.7706 44.2674C23.6959 44.1074 23.5866 43.982 23.4426 43.8914C23.3039 43.7954 23.1413 43.7474 22.9546 43.7474C22.7626 43.7474 22.5946 43.7954 22.4506 43.8914C22.3066 43.982 22.1973 44.1074 22.1226 44.2674C22.0479 44.4274 22.0106 44.606 22.0106 44.8034C22.0106 45.006 22.0479 45.19 22.1226 45.3554C22.1973 45.5207 22.3066 45.6514 22.4506 45.7474C22.5946 45.838 22.7626 45.8834 22.9546 45.8834Z" fill="#795741"/>
<path d="M26.0316 46.8594V43.9634C26.0316 43.59 26.1383 43.2967 26.3516 43.0834C26.5649 42.87 26.8609 42.7634 27.2396 42.7634H28.4316V43.7714H27.5436C27.4689 43.7714 27.4049 43.798 27.3516 43.8514C27.2983 43.8994 27.2716 43.9634 27.2716 44.0434V46.8594H26.0316Z" fill="#795741"/>
<path d="M28.9855 46.8594V41.0194H30.2255V44.3074H30.7695L31.7055 42.7554H33.0895L31.9855 44.4674C32.3055 44.6007 32.5535 44.806 32.7295 45.0834C32.9108 45.3554 33.0015 45.6754 33.0015 46.0434V46.8594H31.7535V46.0434C31.7535 45.894 31.7162 45.7607 31.6415 45.6434C31.5722 45.5207 31.4788 45.4247 31.3615 45.3554C31.2442 45.286 31.1108 45.2514 30.9615 45.2514H30.2255V46.8594H28.9855Z" fill="#795741"/>
</svg>
