<svg width="70" height="48" viewBox="0 0 70 48" fill="none" xmlns="http://www.w3.org/2000/svg">
<g clip-path="url(#clip0_87_189)">
<rect width="70" height="48" fill="#D9D9D9"/>
<path d="M65.0641 8.58398H4.93588C2.21423 8.58398 -1.52588e-05 10.1023 -1.52588e-05 11.9686V36.0301C-1.52588e-05 37.8964 2.21423 39.4148 4.93588 39.4148H65.0641C67.7856 39.4148 70 37.8964 70 36.0301V11.9686C70 10.1023 67.7856 8.58398 65.0641 8.58398Z" fill="#D9D9D9"/>
<path d="M31.0501 30.9951L11 31V30.9676C11 30.9499 11.032 30.8346 11.071 30.7114C11.1101 30.5883 11.1709 30.3924 11.2061 30.2762C11.2413 30.1599 11.3015 29.9624 11.3397 29.8371C11.4339 29.5311 11.527 29.2249 11.6189 28.9185C11.655 28.7978 11.7153 28.6002 11.7529 28.4795C11.8009 28.3251 11.8484 28.1706 11.8955 28.0161C11.9362 27.882 11.9981 27.6771 12.0331 27.5608C12.0681 27.4445 12.1237 27.2653 12.1566 27.1625C12.1895 27.0597 12.2316 26.9207 12.2499 26.8535C12.2683 26.7865 12.3279 26.5888 12.3822 26.4145C12.428 26.2684 12.4725 26.122 12.5155 25.9755C12.5345 25.9085 12.5947 25.7109 12.6495 25.5365C12.7041 25.3622 12.7642 25.1646 12.7829 25.0975C12.8017 25.0305 12.8621 24.8329 12.9171 24.6585C12.9722 24.4841 13.0317 24.2903 13.0492 24.2277C13.0668 24.1651 13.1149 24.0041 13.1562 23.87C13.1974 23.7359 13.2755 23.4834 13.3297 23.3091C13.3839 23.1346 13.4766 22.831 13.5356 22.6342C13.5947 22.4375 13.6653 22.2034 13.6925 22.1139C13.7725 21.851 13.8532 21.5881 13.9347 21.3254C13.9749 21.1956 14.0402 20.9835 14.0798 20.8538C14.1196 20.7241 14.1807 20.5229 14.2158 20.4067C14.2509 20.2904 14.3107 20.0966 14.3488 19.9758C14.3868 19.8551 14.4523 19.6428 14.4943 19.5042C14.5363 19.3656 14.6066 19.1534 14.6506 19.0327C14.6945 18.912 14.7566 18.7656 14.7887 18.7076C14.8207 18.6494 14.909 18.5234 14.985 18.4275L15.1232 18.2532L15.2489 18.1429C15.3178 18.0824 15.4412 17.9866 15.5229 17.9301C15.6045 17.8737 15.7422 17.7887 15.8291 17.7414C15.9158 17.694 16.0414 17.63 16.1081 17.5993C16.1748 17.5685 16.3059 17.5146 16.3993 17.4796C16.4927 17.4445 16.6239 17.3986 16.6906 17.3775C16.7573 17.3565 16.8938 17.318 16.9939 17.2921C17.094 17.2662 17.2851 17.2227 17.4185 17.1956C17.552 17.1684 17.8025 17.1274 17.9753 17.1046C18.1481 17.0817 18.421 17.0511 18.582 17.0366L18.8746 17.0103L38.9373 17.0052L59 17V17.0324C59 17.0501 58.9678 17.1654 58.9286 17.2885C58.8789 17.4443 58.8302 17.6002 58.7824 17.7563C58.7413 17.8905 58.6816 18.0844 58.6494 18.1872C58.6039 18.3335 58.5588 18.4798 58.5142 18.6262C58.4719 18.7648 58.407 18.9771 58.3698 19.0977C58.3326 19.2185 58.2724 19.416 58.236 19.5367C58.1996 19.6575 58.139 19.855 58.1014 19.9757C58.0576 20.1166 58.0144 20.2575 57.9717 20.3986C57.9381 20.5103 57.877 20.7115 57.8362 20.8457C57.7954 20.9798 57.7298 21.192 57.6905 21.3172C57.6511 21.4424 57.5913 21.6363 57.5574 21.7481C57.5234 21.8599 57.4625 22.061 57.4218 22.1951C57.381 22.3293 57.3156 22.5415 57.2763 22.6668C57.237 22.792 57.1785 22.9822 57.1461 23.0895C57.0563 23.3876 56.9659 23.6858 56.875 23.9838C56.8421 24.0911 56.7835 24.2813 56.7448 24.4065C56.6952 24.5663 56.6461 24.7262 56.5973 24.8862C56.555 25.0248 56.4944 25.2223 56.4627 25.3252C56.431 25.428 56.3717 25.6219 56.3308 25.756C56.283 25.9133 56.2349 26.0704 56.1865 26.2275C56.1479 26.3528 56.0875 26.5504 56.0521 26.6666C56.0168 26.7829 55.9553 26.9841 55.9156 27.1137C55.8759 27.2434 55.8109 27.4555 55.7713 27.5852C55.7317 27.7149 55.6724 27.9088 55.6394 28.0162C55.5945 28.1624 55.55 28.3087 55.5056 28.4551C55.4578 28.6118 55.4088 28.7684 55.3585 28.9249L55.2855 29.1507L55.1984 29.3069C55.1506 29.3929 55.0786 29.5071 55.0384 29.5608C54.9984 29.6144 54.9168 29.7091 54.857 29.7712C54.7973 29.8331 54.714 29.9127 54.672 29.9478C54.63 29.9829 54.5036 30.0736 54.3908 30.1493L54.1863 30.287L53.9894 30.3807C53.8811 30.4323 53.7643 30.4848 53.7301 30.4973C53.6958 30.5099 53.5653 30.5545 53.44 30.5965C53.3148 30.6385 53.1379 30.692 53.047 30.7153C52.956 30.7387 52.7758 30.7784 52.6466 30.8035C52.5173 30.8288 52.3788 30.8537 52.3388 30.8588C52.2987 30.8639 52.1597 30.8832 52.0299 30.9017C51.9001 30.9201 51.638 30.9476 51.4476 30.9628L51.1012 30.9904L31.0511 30.9951H31.0501ZM23.9168 27.5201H24.4385L24.4532 27.4944C24.4614 27.4802 24.468 27.447 24.468 27.4205C24.468 27.394 24.4852 27.2977 24.5063 27.2065C24.5273 27.1151 24.5765 26.9051 24.6159 26.7397C24.6551 26.5743 24.7139 26.3255 24.7465 26.1869C24.7775 26.0556 24.807 25.9241 24.835 25.7926C24.851 25.7143 24.8706 25.6503 24.8785 25.6503C24.8863 25.6503 24.92 25.6849 24.9534 25.7272L25.014 25.804L25.1485 25.8949L25.2831 25.9857L25.4486 26.0302L25.6143 26.0746L25.8116 26.0917L26.009 26.1088L26.2594 26.0985L26.51 26.0881L26.7812 26.0412L27.0525 25.994L27.198 25.9496C27.2782 25.9251 27.4201 25.8717 27.5135 25.8309L27.6834 25.7568L27.8417 25.6507C27.9289 25.5925 28.0517 25.4989 28.1147 25.4428C28.1778 25.3869 28.2294 25.3369 28.2294 25.332C28.2294 25.327 28.2604 25.2923 28.2983 25.2549C28.3361 25.2175 28.4135 25.1137 28.4703 25.0243C28.5272 24.9349 28.6159 24.7739 28.6677 24.6666L28.7618 24.4715L28.8104 24.3025C28.8371 24.2096 28.8716 24.0559 28.8869 23.961L28.9147 23.7886L28.8986 23.6422L28.8826 23.4959L28.8318 23.3496L28.7812 23.2032L28.6992 23.0937L28.6173 22.9841L28.4589 22.8717L28.3006 22.7592L28.1133 22.6943L27.926 22.6295L27.7197 22.5963L27.5134 22.5633L27.3071 22.5532L27.1009 22.543L26.8712 22.5607L26.6413 22.5784L26.4538 22.6105L26.2663 22.6426L26.1033 22.6931C26.0138 22.7209 25.8833 22.7681 25.8136 22.798C25.7439 22.8279 25.6719 22.8622 25.6537 22.8744C25.6355 22.8865 25.592 22.9091 25.557 22.9244L25.4932 22.9523L25.5377 22.8095C25.5623 22.731 25.5827 22.6576 25.5833 22.6463L25.5843 22.626H24.6944L24.6165 22.9553C24.5735 23.1364 24.5058 23.4162 24.4659 23.5773C24.3779 23.9324 24.2889 24.2873 24.1989 24.6422C24.1592 24.7987 24.0936 25.0475 24.0531 25.1951C24.0126 25.3426 23.9533 25.5585 23.9213 25.6748C23.8893 25.791 23.829 26.0105 23.7874 26.1625C23.7384 26.3414 23.6888 26.5203 23.6388 26.699C23.5914 26.8672 23.543 27.0352 23.4937 27.2031C23.4539 27.3372 23.4156 27.4635 23.4082 27.4835L23.395 27.5201H23.9168V27.5201ZM26.163 25.6402L25.9604 25.6484L25.828 25.6327L25.6956 25.617L25.5611 25.5759L25.4265 25.5348L25.3326 25.4746L25.2386 25.4146L25.1844 25.3333C25.1545 25.2886 25.1163 25.2126 25.0993 25.1644L25.0683 25.077L25.0807 24.9368L25.0932 24.7968L25.1557 24.5772C25.2028 24.4094 25.2486 24.2413 25.2928 24.0732C25.3339 23.9167 25.3962 23.6873 25.4311 23.5636L25.4945 23.3385L25.6337 23.261C25.7102 23.2184 25.8314 23.1611 25.9031 23.1339L26.0332 23.0844L26.203 23.0492L26.3729 23.014L26.5913 23.0053L26.8097 22.9968L26.9876 23.0222L27.1654 23.0475L27.291 23.0863L27.4164 23.125L27.5217 23.1959L27.627 23.2668L27.6837 23.3419C27.7149 23.3832 27.7588 23.464 27.7811 23.5215L27.8218 23.626L27.8093 23.9349L27.7969 24.2439L27.7346 24.4265C27.7003 24.527 27.6351 24.6806 27.5896 24.7679L27.507 24.9268L27.4056 25.0554C27.3499 25.1261 27.2641 25.2217 27.2148 25.2677C27.1656 25.3138 27.087 25.3736 27.0402 25.4004C26.9836 25.4327 26.9257 25.4638 26.8664 25.4938L26.7775 25.5383L26.5715 25.5852L26.3656 25.6321L26.163 25.6402ZM31.202 26.0873L31.469 26.0893L31.7358 26.073C31.8828 26.064 32.1229 26.0453 32.2697 26.0314C32.4166 26.0176 32.6702 25.9865 32.8334 25.9625L33.13 25.9188L33.1448 25.8455C33.1529 25.8052 33.1863 25.6853 33.2189 25.5789L33.2781 25.3855L33.265 25.3768L33.2519 25.368L33.1612 25.3973C33.1113 25.4135 32.9559 25.452 32.816 25.4829L32.5614 25.539L32.2942 25.5738L32.027 25.6084L31.6024 25.609L31.1778 25.6095L31.0321 25.5784C30.9521 25.5613 30.8343 25.53 30.7704 25.5087L30.6543 25.4702L30.5585 25.4122L30.4627 25.3542L30.3879 25.2667L30.3131 25.179L30.2662 25.0692L30.2193 24.9593L30.219 24.756L30.2187 24.5527L30.2602 24.3714L30.302 24.19L30.6671 24.1786L31.0323 24.1671L32.3822 24.173L33.732 24.1788L33.7727 24.0629C33.7952 23.9992 33.8295 23.8675 33.8489 23.7703L33.8843 23.5934L33.8851 23.4447L33.886 23.2959L33.8475 23.1849L33.809 23.0738L33.7454 23.0004C33.7106 22.9599 33.6489 22.9013 33.6086 22.8701C33.5683 22.8389 33.4963 22.7949 33.4487 22.7724C33.4009 22.7499 33.3073 22.7119 33.2406 22.6881L33.1193 22.6449L32.9073 22.6107L32.6953 22.5765L32.4342 22.5598L32.1729 22.5431L31.9303 22.5537L31.6877 22.5642L31.3964 22.6017L31.1053 22.6392L30.9232 22.688C30.823 22.7147 30.6702 22.7637 30.5835 22.7966C30.4968 22.8296 30.3767 22.8832 30.3167 22.9158C30.2565 22.9484 30.1525 23.0118 30.0855 23.0567C30.0185 23.1016 29.9192 23.1822 29.8652 23.2358C29.8111 23.2896 29.7281 23.3846 29.6806 23.4472C29.6333 23.5098 29.5717 23.5976 29.5436 23.6423C29.5157 23.687 29.4646 23.7785 29.4305 23.8455C29.3962 23.9127 29.3423 24.0407 29.3109 24.1301C29.2738 24.2385 29.2417 24.3475 29.2148 24.4573L29.176 24.6218L29.1765 24.8638L29.1769 25.1057L29.2137 25.2114C29.2339 25.2695 29.2728 25.3573 29.2998 25.4065C29.3268 25.4557 29.3771 25.5288 29.4113 25.5691C29.4455 25.6094 29.5185 25.6741 29.5735 25.7131C29.6284 25.752 29.7281 25.8112 29.7949 25.8444C29.8615 25.8777 29.9803 25.9246 30.0588 25.9485L30.2015 25.992L30.4004 26.0242C30.5098 26.042 30.6749 26.063 30.7673 26.0709C30.8595 26.0787 31.0552 26.0862 31.202 26.0873ZM31.659 23.7967C30.9873 23.7967 30.4376 23.7935 30.4376 23.7896C30.4376 23.7857 30.4663 23.7289 30.5014 23.6635C30.5364 23.5982 30.5979 23.5009 30.638 23.4474L30.7112 23.35L30.8716 23.2431L31.0321 23.1361L31.1899 23.0856C31.2766 23.0578 31.3913 23.0275 31.4447 23.0183C31.4982 23.0091 31.6509 22.9969 31.7844 22.9912L32.0271 22.9808L32.2135 22.9968L32.3998 23.0129L32.5353 23.0544L32.6708 23.096L32.7451 23.1497C32.7859 23.1792 32.8345 23.2227 32.8533 23.2462L32.8871 23.2892L32.9094 23.3845L32.9319 23.4797L32.9062 23.6382L32.8806 23.7969H31.659V23.7967ZM38.919 26.0874L39.1861 26.0893L39.4893 26.0652C39.656 26.052 39.878 26.0301 39.9826 26.0164C40.109 25.9994 40.2344 25.9794 40.3587 25.9566C40.461 25.9372 40.5536 25.9163 40.5644 25.9101C40.5752 25.9038 40.604 25.8301 40.6286 25.7461C40.6532 25.6621 40.684 25.5496 40.6972 25.4959C40.7104 25.4422 40.7173 25.3955 40.7124 25.3919C40.7075 25.3884 40.6897 25.393 40.6727 25.402C40.6557 25.4111 40.5366 25.4446 40.4081 25.4766L40.1745 25.5348L39.8416 25.5779L39.5088 25.6211L39.226 25.6147L38.9431 25.6082L38.7824 25.5708L38.6216 25.5334L38.4975 25.4607L38.3734 25.3879L38.291 25.2873L38.2086 25.1869L38.1693 25.0523L38.13 24.9179L38.1304 24.7435L38.1306 24.569L38.1783 24.3576L38.226 24.1462L38.2764 24.0323C38.3041 23.9697 38.3356 23.8966 38.3462 23.8698C38.3568 23.8429 38.4013 23.7661 38.4451 23.699C38.4888 23.6319 38.5669 23.5283 38.6185 23.4687L38.7125 23.3603L38.8278 23.2801L38.9432 23.2L39.0653 23.1493L39.1875 23.0985L39.3444 23.0661C39.4307 23.0483 39.5832 23.0252 39.6833 23.0148L39.8654 22.9958L40.1322 23.0047L40.3991 23.0137L40.7146 23.056L41.0301 23.0982L41.1584 23.1303C41.2289 23.1479 41.2897 23.1624 41.2936 23.1624C41.2974 23.1624 41.3143 23.1021 41.3311 23.0283C41.3481 22.9546 41.3782 22.8331 41.398 22.7586C41.418 22.6839 41.4295 22.6197 41.4235 22.6158C41.4177 22.6119 41.3229 22.6018 41.2129 22.5933C41.1028 22.585 40.8037 22.5701 40.5483 22.5602L40.0837 22.5423L39.756 22.5591L39.4284 22.576L39.1857 22.6101L38.943 22.6443L38.7868 22.6862C38.7008 22.7092 38.5749 22.7508 38.507 22.7786C38.4419 22.8051 38.3778 22.8328 38.3149 22.8616C38.2771 22.8795 38.1627 22.9493 38.0603 23.0167L37.8746 23.1392L37.7707 23.2411C37.7138 23.2971 37.615 23.4139 37.5514 23.5006L37.4358 23.6584L37.3472 23.829C37.2985 23.9229 37.2304 24.0766 37.196 24.1705L37.1334 24.3413L37.1106 24.4958L37.088 24.6502L37.0882 24.8534L37.0885 25.0567L37.1113 25.1749L37.1342 25.2931L37.2069 25.4148L37.2796 25.5364L37.3636 25.6243L37.4474 25.7122L37.5809 25.8003L37.7145 25.8883L37.8556 25.9383L37.997 25.9883L38.1824 26.0228C38.2843 26.0418 38.4318 26.0636 38.51 26.0712C38.5882 26.0789 38.7723 26.086 38.9192 26.0871H38.919V26.0874ZM42.9107 26.0814L43.2383 26.075L43.4446 26.0397L43.6508 26.0042L43.7844 25.962C43.8578 25.9388 43.9778 25.8929 44.0512 25.86C44.1246 25.8272 44.2384 25.7647 44.3037 25.7213C44.3691 25.6778 44.4662 25.6036 44.5194 25.5564C44.5726 25.5092 44.6193 25.4727 44.6232 25.4753C44.6272 25.478 44.6149 25.5531 44.5959 25.6424C44.5771 25.7317 44.5614 25.8504 44.5612 25.9064L44.5607 26.0079H45.4515L45.465 25.7763L45.4786 25.5446L45.5421 25.2438C45.5771 25.0783 45.6336 24.8332 45.6677 24.6991C45.7016 24.565 45.7608 24.3382 45.7992 24.1951C45.8374 24.0519 45.8981 23.8288 45.9339 23.6991L45.9991 23.4634L46.0013 23.2597L46.0034 23.0561L45.9348 22.962L45.8661 22.8678L45.7729 22.8079L45.6796 22.7479L45.5267 22.6961L45.3736 22.6441L45.1456 22.6101L44.9175 22.576L44.6036 22.5601L44.2897 22.5441L43.8853 22.5609C43.6627 22.57 43.3499 22.5882 43.1897 22.6013L42.8985 22.6249L42.7 22.6255L42.5016 22.626L42.4727 22.7195C42.4568 22.7709 42.4126 22.893 42.3746 22.991C42.3365 23.0889 42.309 23.1714 42.3133 23.1742C42.3175 23.1771 42.4237 23.1609 42.5491 23.1383C42.6745 23.1157 42.941 23.0786 43.1412 23.0556L43.5052 23.0141L43.8328 23.0051L44.1604 22.996L44.3715 23.0209L44.5826 23.0456L44.7234 23.0922L44.8642 23.1388L44.9431 23.2175L45.022 23.2963L45.0209 23.4204L45.0197 23.5446L44.9779 23.6808L44.936 23.8171L44.0628 23.8192L43.1896 23.8213L42.9039 23.8738C42.7468 23.9027 42.5727 23.941 42.5172 23.959C42.4616 23.977 42.406 23.9917 42.3937 23.9917C42.3813 23.9917 42.2879 24.0264 42.1859 24.0689L42.0006 24.146L41.8547 24.2436C41.7744 24.2974 41.6719 24.3778 41.6268 24.4226C41.5817 24.4672 41.5085 24.5606 41.4641 24.6301L41.3834 24.7564L41.3463 24.8984L41.3092 25.0403V25.3383L41.3446 25.4624L41.3801 25.5864L41.4457 25.6673C41.4819 25.7117 41.5483 25.777 41.5931 25.8121L41.6748 25.8761L41.8199 25.9352L41.965 25.9943L42.1312 26.0257C42.2226 26.043 42.3616 26.064 42.4403 26.0724L42.5832 26.0874L42.9108 26.0812H42.9107V26.0814ZM43.2141 25.6266L43.0199 25.6334L42.8913 25.6115C42.8207 25.5994 42.7133 25.5725 42.6529 25.5517L42.5431 25.5138L42.4831 25.4661C42.4501 25.4397 42.3998 25.3882 42.3711 25.3514L42.3191 25.2844L42.309 25.1282L42.2987 24.9718L42.3398 24.877C42.3625 24.8249 42.4156 24.7344 42.4579 24.6759L42.5347 24.5696L42.682 24.4718L42.829 24.3739L42.9852 24.3235L43.1413 24.2732L43.3355 24.2422L43.5296 24.2113H44.743L44.7814 24.222L44.8197 24.2326L44.7875 24.3602C44.7697 24.4304 44.7273 24.5573 44.6932 24.6423C44.6593 24.7273 44.5992 24.8521 44.5598 24.9198C44.5204 24.9875 44.4882 25.0474 44.4882 25.0528C44.4882 25.0582 44.4483 25.1075 44.3995 25.1624L44.3109 25.2621L44.1654 25.3587C44.0854 25.4118 44.011 25.4553 44.0003 25.4553C43.9896 25.4553 43.9405 25.4737 43.8913 25.496L43.8019 25.5366L43.6051 25.5784L43.4083 25.62L43.2141 25.6266ZM51.1129 26.0871L51.3434 26.0891L51.5619 26.0653C51.682 26.0523 51.8348 26.0312 51.9016 26.0186C51.9683 26.0059 52.0885 25.9731 52.1684 25.9456L52.3141 25.8956L52.4394 25.8217L52.5645 25.7478L52.6965 25.63C52.7691 25.5652 52.8348 25.5012 52.8425 25.4877L52.8566 25.4633L52.8443 25.5446C52.8356 25.599 52.8244 25.6532 52.8108 25.7072C52.799 25.7519 52.7823 25.8379 52.7735 25.8983L52.7574 26.008H53.7095V25.7885L53.782 25.3738C53.8218 25.1458 53.8809 24.8422 53.913 24.6991C53.9452 24.5559 53.995 24.3512 54.0236 24.2438C54.052 24.1365 54.1027 23.9425 54.1359 23.8129C54.1692 23.6833 54.2292 23.4564 54.2694 23.3089C54.3095 23.1613 54.3738 22.9272 54.4122 22.7886C54.4505 22.65 54.5102 22.4341 54.5448 22.3089C54.5794 22.1838 54.6411 21.9642 54.6822 21.8212C54.7253 21.6719 54.7697 21.5228 54.8156 21.374C54.8479 21.2712 54.8743 21.1816 54.8742 21.1748V21.1626H53.8355L53.8202 21.2643C53.8118 21.3201 53.772 21.5049 53.7319 21.6748C53.6842 21.8755 53.6357 22.076 53.5863 22.2764C53.5576 22.392 53.5292 22.5076 53.501 22.6233L53.4879 22.6775L53.447 22.6658C53.4245 22.6594 53.3022 22.6367 53.1755 22.6153L52.945 22.5766L52.6296 22.5601L52.314 22.5436L52.0471 22.5602L51.7802 22.5769L51.5375 22.618L51.2948 22.6591L51.0643 22.7344L50.8337 22.8098L50.6638 22.8939L50.494 22.9782L50.3472 23.0837C50.2665 23.1416 50.15 23.2375 50.0882 23.2967L49.9759 23.4044L49.844 23.5883C49.7715 23.6894 49.6832 23.8234 49.6478 23.886C49.6124 23.9486 49.5501 24.0874 49.5092 24.1944L49.435 24.3889L49.3984 24.6416L49.3618 24.8941L49.3893 25.0973L49.4169 25.3006L49.4493 25.3738C49.4673 25.414 49.5049 25.4858 49.533 25.5331L49.5842 25.6193L49.6776 25.704L49.7711 25.7888L49.8778 25.8473L49.9843 25.9059L50.13 25.9543C50.2101 25.9809 50.3444 26.0154 50.4285 26.0308C50.5125 26.0462 50.649 26.0648 50.7319 26.072C50.8147 26.0793 50.986 26.0861 51.1129 26.0871ZM51.5267 25.6259L51.3434 25.6323L51.2198 25.6175C51.1518 25.6093 51.043 25.5872 50.9779 25.5686L50.8597 25.5347L50.7602 25.48L50.6608 25.4254L50.5869 25.3306L50.5129 25.2358L50.4792 25.1301L50.4456 25.0243L50.4485 24.813L50.4513 24.6016L50.4905 24.4146L50.5296 24.2277L50.5904 24.0976C50.6239 24.0261 50.6514 23.9585 50.6516 23.9476C50.6518 23.9367 50.6847 23.8782 50.725 23.8176C50.772 23.7475 50.8217 23.6782 50.874 23.6098C50.9159 23.5562 50.9942 23.4726 51.0478 23.4239C51.1016 23.3754 51.1974 23.3022 51.2606 23.2613C51.3239 23.2205 51.4244 23.1669 51.4843 23.1422L51.5929 23.0975L51.7837 23.0532L51.9745 23.009L52.3749 23.0088H52.7753L53.0058 23.0517C53.1327 23.0753 53.2673 23.1026 53.305 23.1125L53.3737 23.1304L53.3603 23.175C53.353 23.1995 53.3241 23.3074 53.2962 23.4147C53.2684 23.522 53.2134 23.7269 53.1741 23.87C53.1349 24.0131 53.0745 24.229 53.04 24.3497C53.0056 24.4703 52.9557 24.624 52.9291 24.691C52.9018 24.76 52.8741 24.8288 52.8459 24.8975C52.8267 24.9439 52.7808 25.0245 52.7442 25.0763C52.7074 25.1282 52.6431 25.2036 52.6013 25.2438C52.5594 25.284 52.4888 25.3399 52.4441 25.3677C52.3994 25.3957 52.3028 25.4452 52.2294 25.4779L52.096 25.5374L51.9031 25.5784L51.7101 25.6194L51.5267 25.6259ZM15.8125 26.008H16.402L16.4444 25.8332C16.4676 25.7371 16.5131 25.5523 16.5454 25.4226L16.6788 24.8861C16.7199 24.7206 16.7817 24.4755 16.8159 24.3414C16.8501 24.2073 16.9045 23.9992 16.9367 23.8791C16.969 23.7588 17.0015 23.6563 17.0089 23.6514L17.0226 23.6423H20.1934L20.211 23.6541L20.2287 23.6659L20.2011 23.7598C20.1861 23.8114 20.1413 23.9707 20.1018 24.1138C20.0623 24.2569 19.9958 24.4983 19.954 24.6504C19.9101 24.8104 19.8655 24.9702 19.8201 25.13C19.788 25.2418 19.7232 25.4759 19.6761 25.6503C19.629 25.8247 19.5905 25.9765 19.5906 25.9877L19.5909 26.008H20.775L20.8011 25.9065C20.8156 25.8506 20.8387 25.75 20.8527 25.6829C20.8666 25.6158 20.9002 25.473 20.9273 25.3658C20.9544 25.2585 21.0085 25.0462 21.0476 24.8942C21.0866 24.7422 21.1521 24.4824 21.193 24.317C21.2339 24.1515 21.2945 23.91 21.3278 23.7805C21.3699 23.6177 21.4138 23.4551 21.4593 23.2927C21.4984 23.1541 21.5637 22.92 21.6042 22.7723C21.6448 22.6248 21.7055 22.4017 21.7392 22.2764C21.773 22.1512 21.8344 21.9244 21.8758 21.7724C21.9172 21.6204 21.9695 21.443 21.992 21.3781L22.0328 21.2602H20.834L20.8177 21.3374C20.8088 21.3798 20.7798 21.4988 20.7533 21.6017C20.7268 21.7045 20.6788 21.8874 20.6465 22.0081C20.6142 22.1289 20.5551 22.3593 20.5152 22.5203C20.4761 22.678 20.4385 22.8358 20.4023 22.9939L20.3618 23.1747L19.4819 23.1866L18.6019 23.1986L17.8649 23.1868C17.4595 23.1804 17.1256 23.1738 17.1228 23.1723C17.1201 23.1707 17.1339 23.1075 17.1534 23.0319C17.1793 22.9343 17.2068 22.837 17.2359 22.7398C17.2732 22.6153 17.3094 22.4906 17.3444 22.3658C17.3783 22.2451 17.4167 22.0951 17.4298 22.0325C17.4428 21.9699 17.4702 21.8656 17.4905 21.8008C17.5109 21.736 17.5495 21.5994 17.5764 21.4973C17.6032 21.3952 17.6318 21.3001 17.64 21.286L17.6547 21.2601H16.4654L16.4275 21.4024C16.4065 21.4807 16.3785 21.5922 16.3654 21.6504C16.3522 21.7085 16.3079 21.8951 16.2669 22.065C16.226 22.2349 16.1655 22.4873 16.1326 22.6259L15.9994 23.1869C15.9526 23.3823 15.9032 23.5774 15.8513 23.7722C15.8082 23.9322 15.7642 24.0921 15.7193 24.2518C15.6877 24.3637 15.6276 24.5758 15.5856 24.7234C15.5416 24.8781 15.4962 25.0326 15.4495 25.1869C15.4167 25.2941 15.3803 25.4185 15.3689 25.4632C15.3572 25.5079 15.3197 25.637 15.2853 25.7499C15.2509 25.8627 15.2228 25.967 15.2228 25.9815V26.0079H15.8125V26.008ZM22.3397 26.008H22.8616L22.8763 25.9823C22.8845 25.9681 22.8911 25.931 22.8911 25.8999C22.8911 25.8686 22.924 25.7064 22.964 25.5394C23.0556 25.1588 23.1495 24.7784 23.2456 24.3983C23.2868 24.2381 23.3301 24.0782 23.3757 23.9186C23.4143 23.7845 23.4736 23.5759 23.5075 23.4553C23.5413 23.3346 23.6079 23.1049 23.6554 22.9448C23.703 22.7848 23.7477 22.6475 23.7549 22.6397L23.7682 22.6254L23.2403 22.6297L22.7125 22.6341L22.6684 22.8455C22.6444 22.9618 22.5915 23.1923 22.551 23.3577C22.5106 23.5231 22.4495 23.7756 22.4151 23.9186C22.3736 24.0897 22.3292 24.2604 22.2822 24.4309C22.2433 24.5695 22.1839 24.7816 22.1499 24.9023C22.116 25.0231 22.0552 25.2353 22.0148 25.3739C21.9743 25.5126 21.9201 25.6955 21.8942 25.7804C21.8683 25.8654 21.8405 25.9514 21.8324 25.9715L21.8177 26.008H22.3397V26.008ZM34.5476 26.008H35.0657L35.0813 25.8611C35.0899 25.7803 35.1191 25.6175 35.1464 25.4993C35.1737 25.3811 35.2296 25.1454 35.2706 24.9755C35.3223 24.7655 35.3787 24.556 35.4398 24.347C35.492 24.1713 35.5508 23.9966 35.5707 23.9588C35.5906 23.9211 35.6069 23.8801 35.6069 23.8679C35.6069 23.8556 35.6458 23.7888 35.6934 23.7196C35.741 23.6502 35.8297 23.5441 35.8905 23.4836L36.0012 23.3737L36.1492 23.2818L36.2972 23.19L36.4797 23.1316L36.6623 23.0731L36.9414 23.0741L37.2204 23.0751L37.3576 23.1025C37.433 23.1176 37.5013 23.13 37.5092 23.13C37.5172 23.13 37.5237 23.1127 37.5237 23.0916C37.5237 23.0706 37.5511 22.9635 37.5844 22.8537C37.6178 22.7439 37.645 22.6495 37.645 22.6438C37.645 22.6381 37.5659 22.6173 37.4691 22.5977C37.3723 22.578 37.2386 22.5573 37.1719 22.5518L37.0505 22.5417L36.8928 22.5604C36.806 22.5707 36.6771 22.5933 36.6062 22.6108C36.5352 22.6283 36.4181 22.6679 36.3459 22.6988C36.2738 22.7298 36.1614 22.7901 36.0965 22.8328C36.0313 22.8756 35.9219 22.9618 35.8532 23.0244C35.7997 23.073 35.7465 23.1218 35.6936 23.1707L35.6589 23.2032L35.68 23.1382C35.6916 23.1023 35.7239 22.9853 35.7518 22.878C35.7796 22.7707 35.8084 22.67 35.8153 22.6544L35.8283 22.6259H34.9028V22.6652C34.9028 22.6867 34.8755 22.8166 34.8422 22.9537C34.8088 23.091 34.7537 23.3202 34.7199 23.4633C34.6861 23.6064 34.6258 23.8551 34.5863 24.0162C34.544 24.1871 34.4995 24.3579 34.4525 24.5283C34.3612 24.8538 34.2678 25.179 34.1723 25.5039C34.1314 25.6425 34.0825 25.8062 34.0637 25.8677C34.0447 25.9292 34.0293 25.9858 34.0293 25.9937V26.008H34.5476ZM46.8466 26.008H47.3763V25.7907L47.4372 25.5213C47.4709 25.3732 47.5262 25.1385 47.5605 24.9999C47.5945 24.8613 47.6371 24.6857 47.6549 24.6096C47.6728 24.5337 47.7202 24.3691 47.7601 24.2439C47.8002 24.1186 47.8501 23.9833 47.8711 23.9431C47.8923 23.9028 47.9096 23.8605 47.9098 23.8492C47.9101 23.8378 47.9552 23.7648 48.0102 23.6869L48.1102 23.5452L48.2422 23.4277L48.3741 23.3103L48.5184 23.2376C48.5978 23.1975 48.7255 23.1445 48.8022 23.1196L48.9416 23.0743L49.2448 23.0757L49.5482 23.0772L49.6676 23.1028L49.787 23.1285L49.8072 23.1202L49.8272 23.1118L49.8284 23.06C49.8289 23.0314 49.8549 22.9253 49.886 22.824L49.9428 22.6399L49.879 22.6232C49.8179 22.6081 49.7561 22.594 49.6939 22.5809L49.5726 22.5553L49.3542 22.5557L49.1358 22.5561L48.9578 22.5981L48.7798 22.64L48.6461 22.694L48.5125 22.748L48.3388 22.87L48.165 22.9919L48.0717 23.0865C48.0204 23.1385 47.9752 23.1788 47.9713 23.176C47.9673 23.1731 47.9953 23.0647 48.0333 22.935C48.0713 22.8053 48.1029 22.6828 48.1035 22.6626L48.1045 22.626H47.2067V22.6364C47.2067 22.6421 47.1843 22.7464 47.1569 22.8681C47.1295 22.9899 47.0745 23.2248 47.0349 23.3903C46.9871 23.5882 46.9388 23.786 46.8899 23.9838C46.8473 24.1547 46.8026 24.3255 46.7559 24.4959C46.7222 24.6166 46.6624 24.8289 46.6229 24.9675C46.5835 25.1061 46.5187 25.3293 46.4789 25.4634L46.3618 25.8577L46.317 26.008H46.8466V26.008ZM23.3662 22.0403L23.5135 22.0407L23.6306 22.014L23.7478 21.9872L23.8514 21.9168L23.9551 21.8464L24.0097 21.7524L24.0643 21.6586L24.0662 21.5204L24.0682 21.3822L24.0197 21.3283L23.9711 21.2743L23.8866 21.2393L23.8021 21.2042H23.4373L23.3131 21.2415L23.1888 21.2787L23.1168 21.3305L23.0447 21.3822L22.988 21.4717L22.9314 21.561L22.9207 21.7003L22.9101 21.8396L22.9627 21.9089L23.0154 21.9781L23.1172 22.0091L23.2189 22.04L23.3662 22.0403Z" fill="#B3131B"/>
</g>
<defs>
<clipPath id="clip0_87_189">
<rect width="70" height="48" fill="white"/>
</clipPath>
</defs>
</svg>
