<svg width="70" height="48" viewBox="0 0 70 48" fill="none" xmlns="http://www.w3.org/2000/svg">
<rect width="70" height="48" fill="#D9D9D9"/>
<path d="M13 11.0044H17.1605C17.5387 11.0044 18.6734 10.7232 19.1777 14.66C19.5559 17.1909 20.0602 21.1277 20.8166 27.033H21.0688C21.8252 20.8465 22.4556 16.6285 22.7077 14.66C23.212 10.7232 24.4728 11.0044 24.9771 11.0044H28.8854V38H24.851V21.9714H24.5989L22.4556 38H19.4298L17.2865 21.9714H16.9083V38H13M30.5244 11.0044H34.5587V27.033H34.937L37.5845 13.8164C38.0888 11.2856 39.2235 11.0044 39.2235 11.0044H43.0057V38H38.9713V21.9714H38.7192L36.0716 35.188C35.5673 37.7188 34.3066 38 34.3066 38H30.5244M48.4269 29.8451V38H44.6447V23.9398H57C56.4957 27.3142 54.7307 29.8451 52.7135 29.8451" fill="#0F754E"/>
<path d="M56.9046 23C57.4107 17.6 55.8925 11 52.6031 11H44C44.253 17.3 46.5303 23 48.9341 23" fill="url(#paint0_linear_87_186)"/>
<defs>
<linearGradient id="paint0_linear_87_186" x1="55.3864" y1="7.1" x2="45.2652" y2="7.1" gradientUnits="userSpaceOnUse">
<stop stop-color="#1F5CD7"/>
<stop offset="1" stop-color="#02AEFF"/>
</linearGradient>
</defs>
</svg>
