<svg width="70" height="48" viewBox="0 0 70 48" fill="none" xmlns="http://www.w3.org/2000/svg">
<rect width="70" height="48" fill="#D9D9D9"/>
<path d="M15 18.334V26.6624H17.7553V23.1788H22.2805V26.6624H25.0219V18.334H22.2805V21.5369H17.7553V18.334H15Z" fill="#F37421"/>
<path d="M48.7441 24.2402C48.7788 24.1022 48.8343 23.8214 48.8343 23.4977C48.8343 22.0034 47.7516 20.4805 44.9061 20.4805C41.8454 20.4805 40.4573 22.1747 40.4573 23.7072C40.4573 25.5965 42.1716 26.7863 45.1629 26.7863C46.3497 26.7863 47.4532 26.6626 48.3555 26.4151L47.9946 25.1444C47.2589 25.3062 46.4954 25.3919 45.5585 25.3919C44.2815 25.3919 43.1641 25.0207 43.0738 24.2449H48.7441V24.2402ZM43.0461 22.9552C43.1155 22.4507 43.5874 21.7321 44.7395 21.7321C46.0027 21.7321 46.2872 22.4983 46.2872 22.9552H43.0461Z" fill="#F37421"/>
<path d="M49.7088 26.6617H52.4503V23.5968C52.4503 23.4493 52.4711 23.3018 52.5058 23.178C52.6863 22.5974 53.3734 22.2262 54.3797 22.2262C54.6851 22.2262 54.9211 22.25 55.1154 22.2738V20.5082C54.9141 20.4844 54.7892 20.4844 54.5393 20.4844C53.6926 20.4844 52.6099 20.8556 52.1588 21.7313H52.0894L51.9992 20.6176H49.6394C49.6741 21.1364 49.7088 21.717 49.7088 22.6069V26.6617Z" fill="#F37421"/>
<path fill-rule="evenodd" clip-rule="evenodd" d="M27.805 18C28.5823 18 29.2139 18.4331 29.2139 18.9661C29.2139 19.4991 28.5823 19.9322 27.805 19.9322C27.0277 19.9322 26.3961 19.4991 26.3961 18.9661C26.3961 18.4331 27.0277 18 27.805 18Z" fill="#FFE700"/>
<path fill-rule="evenodd" clip-rule="evenodd" d="M33.5933 25.2542H34.9675C36.3486 25.2542 36.9733 24.6498 36.9733 24.0168C36.9733 23.3839 36.9039 21.9561 35.2035 21.9561C33.2463 21.9561 33.5586 23.7313 33.5725 24.6593C33.5655 24.8592 33.5864 25.0591 33.5933 25.2542ZM26.3961 20.6141H29.2139V24.0216C29.2139 24.6545 29.7275 25.259 30.8588 25.259C30.8657 23.7265 30.8588 22.1465 30.7824 20.6141H33.1352C33.1838 20.9091 33.2324 21.2042 33.274 21.4993C34.3845 19.9763 37.8894 20.3095 39.0692 21.5992C40.2838 22.927 40.7002 26.7343 34.9675 26.7343H33.6349C33.6488 27.5053 33.6488 28.281 33.6488 29.0567H30.831C30.831 28.3143 30.838 27.5338 30.8449 26.7343C27.7981 26.7248 26.3961 25.4017 26.3961 24.0216V20.6141Z" fill="#F37421"/>
</svg>
