<svg width="75" height="48" viewBox="0 0 75 48" fill="none" xmlns="http://www.w3.org/2000/svg">
<path d="M74.88 0H0V48H74.88V0Z" fill="#D9D9D9"/>
<path d="M57.6237 24.0937C57.6237 14.5497 49.6577 7.95318 40.9293 7.95606H33.4181C24.5858 7.95289 17.316 14.5517 17.316 24.0937C17.316 32.823 24.586 39.9951 33.4181 39.9529H40.9293C49.6569 39.9948 57.6237 32.8207 57.6237 24.0937Z" fill="#0079BE"/>
<path d="M33.4653 9.30762C25.3947 9.31011 18.8551 15.8652 18.8522 23.9553C18.8542 32.0441 25.3941 38.5982 33.4653 38.6011C41.5377 38.5987 48.0794 32.0442 48.0803 23.9553C48.0793 15.865 41.5379 9.3105 33.4653 9.30762Z" fill="white"/>
<path d="M24.229 23.916C24.2367 19.9627 26.7007 16.5915 30.1752 15.252V32.578C26.7007 31.2392 24.2366 27.8697 24.229 23.916ZM36.805 32.5824V15.2524C40.281 16.5888 42.7488 19.9619 42.7551 23.917C42.7487 27.8734 40.281 31.2439 36.805 32.5828V32.5824Z" fill="#0079BE"/>
</svg>
