<svg width="70" height="48" viewBox="0 0 70 48" fill="none" xmlns="http://www.w3.org/2000/svg">
<g clip-path="url(#clip0_3_533)">
<rect width="70" height="48" rx="4" fill="#D9D9D9"/>
<path d="M50 26H63V30.5V35H50V26Z" fill="#0000FF"/>
<path d="M12.0574 17.978L10.9781 14.87L9.9049 17.978H12.0574ZM35.7841 16.7404C35.5674 16.8958 35.3111 16.901 35.0041 16.901H33.0884V15.1694H35.0301C35.305 15.1694 35.5917 15.1839 35.778 15.31C35.9825 15.4236 36.1091 15.6653 36.1091 15.9992C36.1091 16.3399 35.9887 16.6141 35.7841 16.7404ZM49.5015 17.978L48.4102 14.87L47.3249 17.978H49.5015ZM24.0264 21.3421H22.4098L22.4038 15.2361L20.1172 21.3421H18.7326L16.44 15.2307V21.3421H13.2327L12.6267 19.6031H9.34334L8.73124 21.3421H7.01851L9.84242 13.5459H12.1854L14.8674 20.9273V13.5459H17.4412L19.5049 18.8347L21.4007 13.5459H24.0262L24.0264 21.3421ZM30.4696 21.3421H25.2017V13.5459H30.4696V15.1694H26.7787V16.5746H30.3811V18.1727H26.7787V19.7296H30.4696V21.3421ZM37.8463 15.6455C37.8463 16.8885 37.1442 17.5307 36.7351 17.7236C37.0802 17.8788 37.3749 18.1529 37.5152 18.3801C37.7378 18.7679 37.7762 19.1142 37.7762 19.8105V21.3421H36.1857L36.1797 20.3589C36.1797 19.8898 36.2177 19.2151 35.9308 18.8401C35.7004 18.5659 35.3491 18.5064 34.7814 18.5064H33.0886V21.3421H31.5118V13.5459H35.1388C35.9447 13.5459 36.5385 13.571 37.0483 13.9193C37.5472 14.2676 37.8463 14.776 37.8463 15.6455ZM40.4209 21.3421H38.8118V13.5459H40.4209V21.3421ZM59.088 21.3421H56.8533L53.8642 15.4906V21.3421H50.6527L50.039 19.6031H46.7632L46.1678 21.3421H44.3225C43.556 21.3421 42.5855 21.1417 42.0359 20.4798C41.4817 19.8178 41.1934 18.9212 41.1934 17.5035C41.1934 16.3472 41.3657 15.2902 42.0435 14.455C42.5533 13.8328 43.3516 13.5459 44.4383 13.5459H45.965V15.2164H44.4704C43.8949 15.2164 43.5699 15.3175 43.2569 15.6782C42.9881 16.0065 42.8036 16.6271 42.8036 17.4442C42.8036 18.2795 42.9441 18.8817 43.2372 19.2751C43.48 19.5836 43.9212 19.6772 44.3363 19.6772H45.0445L47.267 13.5461H49.6299L52.2998 20.9202V13.5461H54.7008L57.4728 18.9757V13.5461H59.088V21.3421ZM7 22.8734H9.69456L10.3021 21.1417H11.6622L12.2681 22.8734H17.5695V21.5495L18.0427 22.879H20.7948L21.268 21.5297V22.8734H34.4429L34.4368 20.0309H34.6917C34.8702 20.0382 34.9223 20.0577 34.9223 20.4059V22.8734H41.7364V22.2116C42.286 22.5597 43.1409 22.8734 44.2658 22.8734H47.1325L47.746 21.1417H49.1061L49.7061 22.8734H55.2303V21.2285L56.0669 22.8734H60.4937V12H56.1127V13.2842L55.4992 12H51.0037V13.2842L50.4404 12H44.3681C43.3516 12 42.4582 12.1677 41.7364 12.6349V12H37.546V12.6349C37.0867 12.1533 36.4609 12 35.765 12H20.4559L19.4287 14.8084L18.3738 12H13.5518V13.2842L13.0221 12H8.90974L7 17.1698V22.8734Z" fill="white"/>
<path fill-rule="evenodd" clip-rule="evenodd" d="M24.0264 21.3421H22.4098L22.4038 15.2361L20.1172 21.3421H18.7326L16.44 15.2307V21.3421H13.2327L12.6267 19.6031H9.34334L8.73124 21.3421H7.01851L9.84242 13.5459H12.1854L14.8674 20.9273V13.5459H17.4412L19.5049 18.8347L21.4007 13.5459H24.0262L24.0264 21.3421ZM10.9781 14.87L12.0574 17.978H9.9049L10.9781 14.87Z" fill="#0000FF"/>
<path d="M30.4696 21.3421H25.2017V13.5459H30.4696V15.1694H26.7787V16.5746H30.3811V18.1727H26.7787V19.7296H30.4696V21.3421Z" fill="#0000FF"/>
<path fill-rule="evenodd" clip-rule="evenodd" d="M37.8463 15.6455C37.8463 16.8885 37.1442 17.5307 36.7351 17.7236C37.0802 17.8788 37.3749 18.1529 37.5152 18.3801C37.7378 18.7679 37.7762 19.1142 37.7762 19.8105V21.3421H36.1857L36.1797 20.3589C36.1797 19.8898 36.2177 19.2151 35.9308 18.8401C35.7004 18.5659 35.3491 18.5064 34.7814 18.5064H33.0886V21.3421H31.5118V13.5459H35.1388C35.9447 13.5459 36.5385 13.571 37.0483 13.9193C37.5472 14.2676 37.8463 14.776 37.8463 15.6455ZM35.0041 16.901C35.3111 16.901 35.5674 16.8958 35.7841 16.7404C35.9887 16.6141 36.1091 16.3399 36.1091 15.9992C36.1091 15.6653 35.9825 15.4236 35.778 15.31C35.5917 15.1839 35.305 15.1694 35.0301 15.1694H33.0884V16.901H35.0041Z" fill="#0000FF"/>
<path d="M40.4209 21.3421H38.8118V13.5459H40.4209V21.3421Z" fill="#0000FF"/>
<path fill-rule="evenodd" clip-rule="evenodd" d="M59.088 21.3421H56.8533L53.8642 15.4906V21.3421H50.6527L50.039 19.6031H46.7632L46.1678 21.3421H44.3225C43.556 21.3421 42.5855 21.1417 42.0359 20.4798C41.4817 19.8178 41.1934 18.9212 41.1934 17.5035C41.1934 16.3472 41.3657 15.2902 42.0435 14.455C42.5533 13.8328 43.3516 13.5459 44.4383 13.5459H45.965V15.2164H44.4704C43.8949 15.2164 43.5699 15.3175 43.2569 15.6782C42.9881 16.0065 42.8036 16.6271 42.8036 17.4442C42.8036 18.2795 42.9441 18.8817 43.2372 19.2751C43.48 19.5836 43.9212 19.6772 44.3363 19.6772H45.0445L47.267 13.5461H49.6299L52.2998 20.9202V13.5461H54.7008L57.4728 18.9757V13.5461H59.088V21.3421ZM48.4102 14.87L49.5015 17.978H47.3249L48.4102 14.87Z" fill="#0000FF"/>
<path d="M63 28.2714H60.1259C59.839 28.2714 59.6483 28.2841 59.4877 28.4122C59.3214 28.5385 59.2573 28.7259 59.2573 28.9733C59.2573 29.2675 59.3978 29.4676 59.6022 29.5541C59.7685 29.6226 59.9472 29.6425 60.2099 29.6425L61.0646 29.6696C61.927 29.6947 62.5027 29.8699 62.8537 30.2972C62.9176 30.3567 62.956 30.4235 63 30.4903V28.2714ZM63 33.4125C62.6169 34.0744 61.8705 34.41 60.86 34.41H57.8146V32.7378H60.8476C61.1485 32.7378 61.3591 32.691 61.4858 32.5448C61.5957 32.4241 61.6723 32.249 61.6723 32.0361C61.6723 31.809 61.5957 31.6286 61.4797 31.5205C61.3652 31.4015 61.1987 31.3474 60.9241 31.3474C59.4434 31.2879 57.5961 31.4015 57.5961 28.9338C57.5961 27.8027 58.2038 26.6122 59.8587 26.6122H63V25.0606H60.0813C59.2006 25.0606 58.5608 25.3099 58.1077 25.6974V25.0606H53.791C53.1007 25.0606 52.2904 25.2629 51.9071 25.6974V25.0606H44.1985V25.6974C43.585 25.1745 42.5498 25.0606 42.0721 25.0606H36.9874V25.6974C36.5021 25.142 35.4227 25.0606 34.7648 25.0606H29.0742L27.772 26.726L26.5524 25.0606H18.0518V35.9415H26.3924L27.7342 34.2499L28.9982 35.9415L34.1394 35.9469V33.3873H34.6448C35.327 33.3998 36.1315 33.3673 36.8413 33.0047V35.9413H41.0819V33.1054H41.2864C41.5475 33.1054 41.5732 33.1181 41.5732 33.4264V35.9411H54.4552C55.2731 35.9411 56.1279 35.6937 56.6013 35.2448V35.9411H60.6875C61.5378 35.9411 62.3682 35.8002 63 35.4395V33.4125ZM56.7096 30.2972C57.0166 30.6727 57.1812 31.1468 57.1812 31.9494C57.1812 33.6269 56.2943 34.41 54.7039 34.41H51.6325V32.7378H54.6916C54.9907 32.7378 55.2028 32.691 55.3357 32.5448C55.4442 32.4241 55.522 32.249 55.522 32.0361C55.522 31.809 55.4378 31.6286 55.3296 31.5205C55.209 31.4015 55.0426 31.3474 54.768 31.3474C53.2933 31.2879 51.4464 31.4015 51.4464 28.9338C51.4464 27.8027 52.0478 26.6122 53.701 26.6122H56.8624V28.2719H53.9697C53.6829 28.2719 53.4964 28.2846 53.3379 28.4127C53.1651 28.539 53.1011 28.7264 53.1011 28.9738C53.1011 29.268 53.2477 29.4681 53.4461 29.5546C53.6125 29.623 53.7912 29.643 54.0598 29.643L54.9087 29.6701C55.7648 29.6947 56.3524 29.8697 56.7096 30.2972ZM42.48 29.8156C42.2691 29.9635 42.0082 29.9762 41.7013 29.9762H39.7856V28.2248H41.7274C42.0082 28.2248 42.2892 28.2319 42.48 28.3657C42.6844 28.492 42.8065 28.7335 42.8065 29.0671C42.8065 29.4008 42.6844 29.6696 42.48 29.8156ZM43.4324 30.7861C43.7834 30.9392 44.0703 31.2136 44.2049 31.4407C44.4275 31.8215 44.4598 32.1768 44.4661 32.8641V34.41H42.883V33.4343C42.883 32.9652 42.9212 32.2706 42.628 31.908C42.3976 31.6286 42.0464 31.5618 41.4711 31.5618H39.7858V34.41H38.2013V26.6119H41.842C42.6404 26.6119 43.2218 26.6535 43.7394 26.9799C44.2371 27.3352 44.5501 27.822 44.5501 28.7116C44.5499 29.9562 43.8475 30.5914 43.4324 30.7861ZM45.4245 26.6119H50.6877V28.2246H46.995V29.6423H50.5975V31.2333H46.995V32.7849L50.6877 32.7919V34.41H45.4245V26.6119ZM34.7849 30.2107H32.7471V28.2248H34.8032C35.3726 28.2248 35.7678 28.499 35.7678 29.1809C35.7678 29.8554 35.3909 30.2107 34.7849 30.2107ZM31.1764 33.7008L28.7553 30.5244L31.1764 27.4488V33.7008ZM24.9238 32.7849H21.0467V31.2333H24.5087V29.6423H21.0467V28.2246H25.0003L26.7251 30.4971L24.9238 32.7849ZM37.4608 29.1809C37.4608 31.3472 36.0931 31.7944 34.7147 31.7944H32.7471V34.41H29.682L27.7402 31.8285L25.7222 34.41H19.4758V26.6119H25.8183L27.7585 29.168L29.7643 26.6119H34.8032C36.0547 26.6119 37.4608 27.0213 37.4608 29.1809Z" fill="white"/>
<path fill-rule="evenodd" clip-rule="evenodd" d="M37.4608 29.1809C37.4608 31.3472 36.0931 31.7944 34.7147 31.7944H32.7471V34.41H29.682L27.7402 31.8285L25.7222 34.41H19.4758V26.6119H25.8183L27.7585 29.168L29.7643 26.6119H34.8032C36.0547 26.6119 37.4608 27.0213 37.4608 29.1809ZM32.7471 30.2107H34.7849C35.3909 30.2107 35.7678 29.8554 35.7678 29.1809C35.7678 28.499 35.3726 28.2248 34.8032 28.2248H32.7471V30.2107ZM28.7553 30.5244L31.1764 33.7008V27.4488L28.7553 30.5244ZM21.0467 32.7849H24.9238L26.7251 30.4971L25.0003 28.2246H21.0467V29.6423H24.5087V31.2333H21.0467V32.7849Z" fill="#0000FF"/>
<path d="M45.4245 26.6119H50.6877V28.2246H46.995V29.6423H50.5975V31.2333H46.995V32.7849L50.6877 32.7919V34.41H45.4245V26.6119Z" fill="#0000FF"/>
<path fill-rule="evenodd" clip-rule="evenodd" d="M43.4324 30.7861C43.7834 30.9392 44.0703 31.2136 44.2049 31.4407C44.4275 31.8215 44.4598 32.1768 44.4661 32.8641V34.41H42.883V33.4343C42.883 32.9652 42.9212 32.2706 42.628 31.908C42.3976 31.6286 42.0464 31.5618 41.4711 31.5618H39.7858V34.41H38.2013V26.6119H41.842C42.6404 26.6119 43.2218 26.6535 43.7394 26.9799C44.2371 27.3352 44.5501 27.822 44.5501 28.7116C44.5499 29.9562 43.8475 30.5914 43.4324 30.7861ZM41.7013 29.9762C42.0082 29.9762 42.2691 29.9635 42.48 29.8156C42.6844 29.6696 42.8065 29.4008 42.8065 29.0671C42.8065 28.7335 42.6844 28.492 42.48 28.3657C42.2892 28.2319 42.0082 28.2248 41.7274 28.2248H39.7856V29.9762H41.7013Z" fill="#0000FF"/>
</g>
<defs>
<clipPath id="clip0_3_533">
<rect width="70" height="48" rx="4" fill="white"/>
</clipPath>
</defs>
</svg>
